<?xml version="1.0" standalone="no"?>
<!DOCTYPE svg PUBLIC "-//W3C//DTD SVG 20010904//EN"
 "http://www.w3.org/TR/2001/REC-SVG-20010904/DTD/svg10.dtd">
<svg version="1.0" xmlns="http://www.w3.org/2000/svg"
 width="1933.000000pt" height="1250.000000pt" viewBox="0 0 1933.000000 1250.000000"
 preserveAspectRatio="xMidYMid meet">

<g transform="translate(0.000000,1250.000000) scale(0.100000,-0.100000)"
fill="#000000" stroke="none">
<path d="M1015 12367 c-86 -32 -117 -51 -169 -103 -53 -52 -91 -120 -106 -190
-12 -54 -14 -89 -36 -584 -8 -201 -17 -392 -19 -425 -2 -33 -11 -235 -19 -450
-9 -214 -18 -415 -21 -445 -3 -30 -12 -221 -20 -425 -8 -203 -19 -451 -25
-550 -6 -99 -18 -344 -27 -545 -9 -201 -17 -387 -19 -415 -1 -27 -7 -185 -13
-350 -6 -165 -14 -322 -16 -350 -6 -57 -9 -120 -30 -620 -9 -198 -18 -389 -20
-425 -2 -36 -11 -236 -20 -445 -8 -209 -19 -450 -25 -535 -5 -85 -14 -306 -21
-490 -6 -184 -13 -338 -15 -341 -2 -3 -10 -179 -18 -390 -9 -211 -18 -420 -21
-464 -9 -126 -15 -244 -31 -625 -8 -195 -17 -386 -19 -425 -3 -38 -11 -234
-20 -435 -8 -201 -17 -399 -20 -440 -6 -86 -39 -786 -60 -1280 -8 -184 -17
-374 -20 -422 l-7 -88 9235 0 9234 0 6 148 c3 81 4 148 2 150 -3 4 -1233 96
-2215 167 -113 8 -477 35 -810 60 -333 24 -657 48 -720 53 -140 10 -181 27
-222 91 -26 40 -29 53 -24 95 6 56 42 109 96 140 32 19 38 19 259 2 124 -9
345 -26 491 -36 146 -11 324 -24 395 -30 72 -6 254 -19 405 -30 151 -11 322
-24 380 -30 58 -6 501 -39 985 -75 484 -35 906 -67 937 -70 l57 -6 5 43 c3 24
8 104 11 178 5 147 47 1068 70 1565 8 171 15 369 15 440 0 72 1 139 3 150 2
16 -5 21 -35 23 -50 4 -51 30 -3 66 19 15 35 34 35 42 0 17 -5 18 -31 2 -17
-11 -22 -10 -35 6 -14 19 -14 19 -14 -5 0 -13 -10 -44 -23 -69 -24 -49 -57
-66 -57 -31 0 24 -10 27 -28 9 -14 -14 -62 8 -62 29 0 19 -14 16 -35 -7 -52
-57 -129 25 -99 105 4 8 19 22 35 31 33 17 61 7 79 -26 13 -24 30 -26 30 -5 0
9 11 20 24 26 19 9 29 7 50 -6 29 -19 31 -27 14 -55 -9 -14 -10 -22 -1 -31 8
-8 15 -2 27 22 9 18 16 38 16 45 0 7 9 18 21 24 17 10 21 8 26 -9 6 -23 18
-27 28 -11 3 5 17 10 31 10 22 0 24 3 24 55 0 43 -3 53 -15 49 -24 -9 -36 5
-23 26 9 14 9 25 0 45 -14 30 -32 25 -32 -11 0 -20 -5 -24 -29 -24 -16 0 -31
6 -34 13 -4 9 -7 9 -18 0 -7 -7 -21 -13 -31 -13 -10 0 -18 -4 -18 -10 0 -18
-39 -10 -45 10 -5 17 -13 19 -68 13 -74 -7 -92 7 -89 64 4 59 18 75 60 71 28
-2 36 -7 34 -20 -3 -22 31 -33 94 -29 36 2 54 -2 63 -13 21 -25 31 -19 25 14
-5 23 -3 30 9 30 8 0 17 -9 20 -20 4 -15 14 -20 36 -20 20 0 34 -7 41 -21 7
-11 14 -18 18 -14 3 3 10 85 14 183 5 97 12 232 16 299 8 135 9 133 -54 133
-50 0 -44 27 14 70 43 32 47 39 50 83 2 37 0 47 -12 47 -8 0 -20 -9 -26 -20
-14 -26 -50 -27 -50 -2 0 24 27 49 68 63 l32 11 0 86 c0 48 9 260 20 472 11
212 20 397 20 412 0 26 -1 26 -92 32 -51 3 -237 15 -413 26 -176 11 -390 25
-475 31 -85 6 -191 12 -235 14 -44 2 -87 6 -95 8 -8 3 -85 10 -170 17 -85 6
-184 15 -220 20 -38 6 -68 6 -74 0 -5 -5 -17 -5 -30 0 -19 8 -460 52 -511 51
-11 -1 -27 -1 -35 -1 -8 0 -41 4 -73 9 -31 5 -99 12 -150 16 -168 13 -225 24
-92 19 66 -3 156 -7 200 -10 44 -3 147 -7 229 -10 121 -5 147 -3 144 7 -3 8
-22 19 -44 26 -35 11 -25 12 84 10 95 -2 122 0 122 10 0 8 -14 14 -37 15 -21
0 -42 2 -48 3 -5 1 -28 4 -50 8 -22 4 -94 11 -160 17 -66 5 -158 14 -205 19
-47 5 -151 15 -232 22 -82 7 -148 15 -148 19 0 3 -17 5 -37 3 l-38 -2 35 9
c19 4 37 7 40 5 3 -2 62 -6 130 -10 69 -3 188 -10 265 -16 77 -5 268 -18 425
-29 590 -40 1842 -134 1947 -146 l52 -6 5 33 c8 45 23 530 18 547 -8 23 -22
12 -22 -19 0 -24 -4 -30 -17 -27 -15 3 -18 14 -15 68 3 76 15 95 41 63 18 -21
18 -19 24 90 3 62 10 198 16 302 6 105 18 341 26 525 42 927 56 1232 70 1530
29 620 30 650 14 650 -26 0 -68 24 -73 43 -3 11 -10 15 -20 11 -20 -8 -21 -34
-1 -34 8 0 15 -4 15 -10 0 -17 -25 -11 -43 10 -20 23 -22 40 -6 40 7 0 18 8
25 18 12 16 16 14 46 -23 l33 -39 5 29 c4 21 11 29 23 27 13 -2 17 5 17 30 0
18 9 218 20 443 11 226 27 586 36 800 10 215 21 391 26 393 11 5 10 222 -1
222 -5 0 -12 17 -16 37 -17 94 -107 208 -202 256 -71 37 -158 52 -212 37 -50
-13 -136 -92 -147 -134 -9 -39 -27 -32 -47 19 -23 55 -106 132 -150 139 -18 3
-133 10 -257 16 -436 20 -1079 50 -1415 64 -187 9 -383 18 -435 21 -52 3 -293
15 -535 25 -242 11 -642 29 -890 40 -247 11 -538 24 -645 30 -107 6 -307 15
-445 20 -137 5 -288 12 -335 15 -47 3 -281 15 -520 25 -239 11 -586 26 -770
35 -184 8 -425 19 -535 25 -110 6 -351 17 -535 25 -496 22 -1182 53 -1545 70
-419 20 -926 43 -1200 55 -121 6 -312 15 -425 20 -209 11 -530 25 -1320 60
-245 10 -488 22 -540 25 -87 5 -452 22 -1320 60 -184 8 -481 22 -660 30 -179
8 -469 22 -645 30 -176 8 -473 22 -660 30 -187 8 -434 19 -550 25 -265 13
-831 39 -995 45 -112 4 -131 3 -185 -18z m4946 -443 c11 -13 9 -14 -13 -9 -40
10 -43 -11 -6 -44 32 -29 33 -29 14 -50 -11 -12 -24 -21 -30 -21 -17 1 -50 29
-43 37 4 3 16 -2 26 -11 20 -18 41 -14 41 7 0 7 -17 26 -37 43 l-37 31 29 16
c38 20 40 20 56 1z m453 -85 c-8 -8 -14 -24 -14 -34 0 -13 -3 -16 -10 -9 -7 7
-8 19 -1 36 5 14 7 36 4 49 l-5 24 21 -25 c17 -22 18 -27 5 -41z m-346 39 c15
-15 16 -28 2 -28 -5 0 -10 7 -10 15 0 20 -20 19 -36 -2 -7 -10 -16 -15 -20
-11 -10 11 15 38 35 38 9 0 22 -5 29 -12z m100 -16 c6 -18 -15 -14 -22 4 -4
10 -1 14 6 12 6 -2 14 -10 16 -16z m72 -12 c-6 -11 -15 -18 -20 -15 -13 8 0
35 16 35 12 0 12 -4 4 -20z m105 9 c4 -6 4 -13 0 -17 -3 -3 -10 0 -15 8 -8 13
-11 13 -26 -1 -22 -22 -10 -59 19 -59 16 0 18 -3 10 -11 -16 -16 -41 -4 -55
27 -11 23 -10 28 11 45 26 21 47 24 56 8z m125 -50 c0 -16 -4 -29 -10 -29 -5
0 -9 10 -9 23 1 12 -2 31 -7 42 -7 18 -6 18 9 6 9 -7 17 -26 17 -42z m-350 6
c0 -8 9 -15 19 -15 10 0 21 7 25 15 6 17 26 21 26 5 0 -16 -41 -32 -66 -26
-23 6 -35 36 -14 36 6 0 10 -7 10 -15z m110 -5 c0 -5 -4 -10 -10 -10 -5 0 -10
5 -10 10 0 6 5 10 10 10 6 0 10 -4 10 -10z m-190 -10 c0 -5 -2 -10 -4 -10 -3
0 -8 5 -11 10 -3 6 -1 10 4 10 6 0 11 -4 11 -10z m-4565 -500 c3 -5 -1 -10
-10 -10 -10 0 -15 -7 -14 -17 4 -22 -18 -63 -32 -63 -10 0 -6 71 6 89 8 14 42
14 50 1z m78 -33 c-1 -15 2 -27 8 -27 5 0 9 -9 9 -20 0 -23 -3 -24 -31 -7 -17
10 -23 10 -26 0 -8 -22 -25 -14 -21 10 2 14 9 21 22 20 12 -1 15 2 8 9 -15 15
-2 50 17 46 11 -3 15 -13 14 -31z m57 3 c0 -11 -4 -20 -10 -20 -5 0 -10 9 -10
20 0 11 5 20 10 20 6 0 10 -9 10 -20z m170 -7 c17 -22 23 -25 30 -13 6 8 10
18 10 23 0 14 41 7 61 -12 17 -16 18 -19 5 -24 -9 -4 -16 -18 -16 -32 0 -22
-3 -24 -18 -16 -13 7 -23 6 -32 -2 -10 -10 -11 -7 -6 16 8 34 -8 36 -29 3 -20
-30 -48 -38 -74 -19 -25 17 -27 59 -4 85 23 25 48 22 73 -9z m-110 -5 c0 -16
-3 -19 -11 -11 -6 6 -8 16 -5 22 11 17 16 13 16 -11z m336 -10 c-3 -13 -6 -35
-6 -50 0 -18 -5 -28 -15 -28 -11 0 -15 12 -15 50 0 44 2 50 21 50 17 0 20 -4
15 -22z m79 -4 c-17 -13 -18 -16 -5 -25 11 -8 12 -12 3 -16 -7 -2 -13 -11 -13
-18 0 -7 6 -15 13 -18 21 -7 0 -19 -22 -12 -17 5 -21 15 -21 50 0 44 7 53 45
54 20 0 20 0 0 -15z m108 9 c4 -3 -1 -12 -11 -20 -16 -12 -16 -14 6 -32 12
-11 22 -23 22 -28 0 -13 -49 -35 -61 -28 -16 11 -10 25 11 25 26 0 25 8 -5 32
-31 24 -31 32 -2 46 27 13 32 14 40 5z m-260 -40 c-3 -21 -7 -40 -9 -42 -8 -9
-16 31 -10 54 10 39 25 29 19 -12z m-289 18 c9 -14 -4 -41 -20 -41 -8 0 -14
10 -14 25 0 25 23 35 34 16z m-106 -401 c28 -38 27 -48 -6 -85 -23 -25 -35
-30 -74 -30 -53 0 -68 18 -68 79 0 40 21 60 52 53 13 -4 30 -2 38 3 24 15 35
12 58 -20z m272 -15 c7 -9 9 -19 5 -23 -4 -4 -10 -1 -12 6 -6 17 -33 15 -33
-2 0 -17 51 -56 74 -56 9 0 16 -8 16 -20 0 -22 -10 -26 -26 -10 -6 6 -21 6
-42 -2 -27 -11 -34 -10 -49 5 -9 9 -13 20 -9 24 4 4 10 3 14 -3 10 -15 41 -24
47 -14 3 5 -10 23 -30 41 -41 38 -42 42 -12 57 31 15 43 14 57 -3z m3330 -47
c0 -17 11 -28 39 -41 25 -11 45 -30 55 -51 23 -48 20 -56 -18 -56 -25 0 -38 6
-50 25 -23 36 -33 31 -38 -17 -6 -56 -4 -60 42 -81 22 -10 49 -34 61 -53 19
-32 20 -40 10 -74 -13 -43 -62 -90 -94 -90 -27 0 -42 -10 -50 -32 -9 -26 -26
-22 -37 7 -5 14 -20 29 -32 34 -33 12 -75 58 -80 86 -6 31 -2 35 37 35 27 0
35 -5 45 -30 15 -36 40 -40 40 -6 0 13 3 37 6 53 5 27 2 33 -33 53 -55 33 -73
59 -73 106 0 31 6 46 29 68 15 15 41 30 57 35 16 4 33 17 39 29 13 30 45 29
45 0z m-3270 -2 c0 -3 -4 -8 -10 -11 -5 -3 -10 -1 -10 4 0 6 5 11 10 11 6 0
10 -2 10 -4z m40 -30 c0 -34 -12 -52 -28 -42 -4 3 -6 21 -4 40 6 48 32 49 32
2z m40 25 c0 -6 -4 -13 -10 -16 -5 -3 -10 1 -10 9 0 9 5 16 10 16 6 0 10 -4
10 -9z m192 -13 c9 -13 12 -31 8 -42 -4 -12 -9 -16 -13 -9 -4 6 -5 18 -1 26 3
9 -2 16 -15 20 -23 6 -41 -10 -41 -35 0 -10 -5 -18 -11 -18 -6 0 -9 14 -7 32
3 30 15 40 59 47 4 1 13 -9 21 -21z m-147 -5 c-4 -10 -10 -26 -12 -35 -6 -22
-33 -24 -33 -3 0 16 29 53 44 54 4 1 5 -7 1 -16z m250 7 c4 -6 4 -19 0 -28 -6
-16 -8 -15 -21 2 -10 14 -17 17 -24 10 -8 -8 -6 -15 5 -24 14 -12 14 -15 -5
-35 -16 -17 -18 -25 -9 -30 7 -5 18 -1 25 10 16 21 30 14 21 -10 -7 -16 -44
-20 -66 -6 -12 8 -12 16 -1 58 8 26 18 51 24 55 16 11 44 10 51 -2z m90 -70
c-12 -19 -33 -11 -28 10 4 14 0 20 -10 20 -19 0 -31 16 -22 31 5 6 18 -1 37
-20 16 -17 27 -35 23 -41z m-295 35 c0 -14 -4 -25 -10 -25 -11 0 -14 33 -3 43
11 11 13 8 13 -18z m3494 -9 c76 -32 99 -112 47 -162 l-30 -28 30 -33 c69 -79
4 -183 -116 -183 -115 0 -187 78 -151 164 8 19 24 40 36 49 l22 16 -21 29
c-70 98 57 201 183 148z m429 -36 c5 -4 7 -18 5 -31 -3 -23 -5 -24 -86 -20
l-82 3 -16 -37 c-8 -20 -13 -39 -10 -42 2 -3 20 0 38 6 60 19 122 -8 152 -66
65 -127 -74 -259 -206 -194 -43 20 -78 63 -78 95 0 21 55 22 72 1 33 -40 53
-55 74 -55 34 0 73 37 80 77 6 33 3 40 -26 66 -34 31 -68 31 -101 1 -18 -16
-75 -19 -84 -3 -4 5 -2 22 3 37 5 15 18 62 28 106 l19 78 105 -7 c58 -4 109
-10 113 -15z m-3673 0 c0 -5 -2 -10 -4 -10 -3 0 -8 5 -11 10 -3 6 -1 10 4 10
6 0 11 -4 11 -10z m3937 -10 c16 0 38 -13 59 -36 71 -74 30 -182 -103 -273
-44 -30 -41 -41 10 -41 23 0 59 -3 80 -6 30 -5 37 -11 37 -30 0 -12 -3 -25 -8
-27 -13 -9 -267 15 -273 25 -13 20 4 47 49 79 102 73 172 151 172 194 0 25
-38 55 -70 55 -24 0 -35 -7 -48 -30 -13 -24 -24 -30 -49 -30 -28 0 -33 4 -33
23 0 12 10 35 23 50 23 29 92 60 115 52 8 -3 25 -5 39 -5z m364 -35 c36 -19
69 -70 69 -108 0 -56 -77 -158 -149 -196 -11 -7 -21 -18 -21 -25 0 -10 18 -14
71 -15 39 0 75 -3 80 -7 15 -9 10 -44 -7 -51 -23 -9 -253 12 -265 24 -20 20 1
50 58 88 69 46 141 119 149 151 21 84 -72 129 -111 53 -13 -24 -22 -30 -43
-27 -54 6 -32 78 35 113 36 19 96 19 134 0z m357 -33 c28 -18 52 -62 52 -95 0
-13 -14 -38 -32 -56 l-31 -32 21 -15 c47 -32 46 -111 -1 -162 -51 -55 -176
-49 -222 12 -31 40 -41 81 -23 89 28 10 66 -5 72 -29 7 -28 57 -57 83 -47 33
11 53 36 53 63 0 33 -20 51 -69 65 -29 9 -36 16 -36 35 0 19 6 26 25 28 78 9
103 34 74 77 -23 35 -77 35 -100 0 -11 -17 -25 -25 -45 -25 -41 0 -46 24 -15
65 39 51 136 65 194 27z m511 -38 c117 -69 116 -292 -3 -370 -34 -23 -47 -26
-105 -22 -105 6 -157 60 -168 172 -10 110 39 204 122 235 39 14 118 6 154 -15z
m421 -34 c84 -60 110 -175 64 -285 -20 -48 -84 -101 -132 -109 -67 -10 -140
19 -177 72 -28 41 -30 50 -30 132 0 82 2 91 30 132 43 61 105 91 170 82 28 -3
61 -14 75 -24z m-6465 -190 c18 -8 17 -9 -7 -9 -53 -2 -58 -113 -6 -124 13 -3
8 -4 -12 -4 l-35 2 -3 56 c-2 42 1 61 13 73 18 18 21 18 50 6z m93 -39 c3 -20
0 -23 -17 -18 -22 5 -47 -16 -36 -33 3 -5 17 -7 31 -4 27 7 29 2 14 -27 -12
-22 -50 -26 -50 -5 0 8 -6 16 -14 19 -17 7 -10 53 13 78 22 25 55 20 59 -10z
m226 -46 c9 -34 32 -31 51 5 17 33 32 38 41 15 4 -10 -8 -29 -31 -51 -38 -35
-65 -39 -65 -8 0 24 -24 11 -31 -17 -3 -13 -5 3 -4 36 1 33 3 62 4 64 3 10 30
-23 35 -44z m327 6 c20 -16 21 -21 10 -35 -18 -21 -6 -50 18 -43 14 3 21 -2
25 -17 9 -32 26 0 19 36 -3 18 -1 28 6 28 16 0 33 -48 25 -72 -5 -16 -12 -19
-37 -13 -18 3 -57 7 -87 8 l-55 2 3 50 c6 75 28 93 73 56z m5061 2 c32 -29 16
-73 -27 -73 -58 0 -59 88 -1 90 5 0 18 -7 28 -17z m-4908 -36 c-3 -9 -10 -17
-15 -17 -11 0 -12 34 -2 44 11 11 24 -9 17 -27z m-351 -9 l6 -22 26 24 c28 26
47 20 23 -7 -9 -10 -23 -33 -32 -50 -21 -41 -37 -43 -30 -3 4 19 1 38 -10 55
-13 20 -14 25 -2 25 7 0 16 -10 19 -22z m432 -18 c6 -20 35 -28 35 -10 0 6 10
15 23 19 16 7 27 4 44 -11 21 -20 23 -20 48 -4 27 18 55 15 55 -4 0 -6 -10
-10 -22 -8 -19 2 -24 -2 -26 -24 -3 -23 1 -28 17 -28 12 0 21 -4 21 -10 0 -16
-36 -12 -51 6 -7 8 -21 13 -31 11 -14 -4 -18 1 -18 24 0 37 -11 36 -67 -1 -24
-16 -47 -30 -51 -30 -4 0 -7 20 -7 45 0 47 18 62 30 25z m-475 -4 c0 -8 -4
-18 -10 -21 -5 -3 -10 3 -10 14 0 12 5 21 10 21 6 0 10 -6 10 -14z m749 -23
c-11 -29 -6 -53 11 -53 5 0 10 17 10 38 1 34 2 35 15 18 12 -16 12 -22 -2 -42
-19 -30 -44 -31 -69 -3 -19 21 -19 21 11 45 17 13 31 24 32 24 1 0 -2 -12 -8
-27z m-319 -19 c0 -16 -16 -19 -25 -4 -8 13 4 32 16 25 5 -4 9 -13 9 -21z
m1865 -99 c0 -22 -31 -33 -47 -17 -17 17 -1 44 24 40 15 -2 23 -10 23 -23z
m-2681 -267 c25 -25 29 -36 27 -80 -1 -28 -6 -57 -12 -65 -16 -18 -123 -17
-139 1 -19 23 -6 157 17 173 25 19 72 6 107 -29z m12620 -7 c25 -21 23 -125
-4 -144 -23 -16 -116 -12 -138 6 -20 16 -12 126 11 142 24 17 109 14 131 -4z
m-12336 -39 c3 -9 -3 -11 -22 -6 -36 9 -34 -11 4 -43 17 -13 30 -31 30 -38 0
-27 -77 -35 -87 -10 -9 24 6 31 21 10 9 -12 19 -16 32 -11 16 6 14 11 -20 43
l-39 37 23 18 c25 21 51 20 58 0z m12590 -29 c6 -15 12 -33 12 -40 0 -22 27
-14 33 9 4 12 9 19 12 16 4 -3 23 -2 43 4 30 8 38 7 49 -7 11 -16 16 -16 43
-5 27 11 34 11 47 -2 12 -13 13 -19 1 -37 -15 -25 -40 -29 -31 -5 5 14 3 15
-15 5 -29 -16 -52 -14 -52 4 0 22 -31 31 -44 14 -6 -8 -24 -20 -40 -27 -26
-12 -31 -11 -53 10 -24 22 -25 22 -38 4 -8 -11 -21 -16 -30 -13 -21 9 -19 24
5 30 15 4 20 14 20 36 0 38 20 41 38 4z m-12525 -21 c-6 -10 -9 -32 -6 -48 4
-19 2 -26 -4 -19 -16 16 -23 81 -10 94 17 17 34 -5 20 -27z m157 -16 c-11 -21
-11 -28 0 -41 14 -17 8 -31 -9 -20 -12 7 -15 88 -4 99 16 15 26 -14 13 -38z
m12703 32 c6 -18 -4 -78 -13 -78 -8 0 -19 78 -11 86 8 8 19 4 24 -8z m80 -9
c15 -24 -17 -89 -43 -89 -27 0 -25 12 5 40 31 29 33 55 5 47 -20 -5 -26 3 -13
17 11 11 35 3 46 -15z m-12873 -14 c-7 -8 -10 -25 -6 -40 4 -14 4 -25 2 -25
-14 0 -36 14 -36 22 0 15 41 70 48 64 2 -3 -1 -12 -8 -21z m13032 3 c20 -20
22 -20 34 -4 17 24 52 16 72 -16 15 -26 15 -28 -8 -53 -32 -34 -54 -31 -80 10
-23 38 -45 37 -37 -1 3 -20 0 -24 -19 -24 -35 0 -37 15 -4 41 37 30 40 52 5
43 -23 -6 -33 4 -18 19 12 13 33 7 55 -15z m193 -17 c3 -5 -3 -26 -12 -45 -13
-26 -25 -36 -42 -36 l-25 0 28 29 c31 32 30 69 0 57 -14 -5 -15 -4 -4 9 12 15
41 7 55 -14z m-13185 -16 c0 -25 -4 -35 -16 -35 -11 0 -14 5 -10 16 3 9 6 24
6 35 0 10 5 19 10 19 6 0 10 -16 10 -35z m154 -26 c-17 -34 -24 -35 -55 -10
-19 16 -22 23 -13 37 18 31 34 28 34 -6 0 -21 4 -30 13 -27 7 2 11 17 9 38 -2
32 -2 33 12 15 13 -16 13 -22 0 -47z m162 37 c15 -21 44 -20 60 1 7 10 16 15
20 11 4 -5 -1 -17 -11 -28 -17 -19 -17 -21 0 -40 23 -26 11 -39 -15 -15 -13
12 -27 15 -45 11 -23 -6 -25 -4 -20 17 4 15 1 28 -9 36 -14 12 -17 9 -22 -18
-9 -41 -24 -50 -24 -13 0 35 -5 41 -31 35 -13 -4 -19 -14 -19 -32 0 -20 -2
-23 -10 -11 -14 21 -12 36 5 53 19 20 105 15 121 -7z m12936 12 c18 -14 27
-66 15 -86 -10 -15 -53 -16 -62 -1 -11 16 3 23 19 10 17 -14 32 2 19 22 -4 6
-6 20 -5 30 2 10 -3 17 -13 17 -9 0 -13 5 -10 10 8 13 18 13 37 -2z m-12662
-39 c-6 -10 -8 -30 -4 -44 4 -15 2 -25 -5 -25 -11 0 -15 13 -12 38 1 8 -3 20
-10 28 -9 11 -9 17 1 29 18 22 43 0 30 -26z m-72 19 c14 -14 16 -68 3 -68 -5
0 -11 12 -13 27 -4 38 -27 41 -34 4 -6 -31 -24 -43 -24 -17 0 7 -9 16 -20 19
-11 3 -20 11 -20 17 0 7 7 10 16 6 9 -3 25 1 37 9 26 18 39 19 55 3z m146 -31
c-8 -21 -30 -22 -38 -2 -6 16 25 38 37 26 4 -4 5 -15 1 -24z m12854 8 c17 -38
15 -55 -8 -55 -11 0 -20 -5 -20 -11 0 -15 -42 -7 -48 9 -2 7 0 12 5 11 24 -4
33 4 33 29 0 48 20 56 38 17z m373 -11 c10 -12 10 -19 1 -32 -7 -10 -16 -27
-22 -39 -10 -25 -40 -31 -40 -9 0 7 11 22 25 32 31 23 34 49 5 41 -13 -3 -20
0 -20 9 0 19 34 18 51 -2z m-516 -3 c7 -12 -12 -24 -25 -16 -11 7 -4 25 10 25
5 0 11 -4 15 -9z m300 -8 c11 -15 17 -15 40 -5 46 21 74 -18 39 -53 -12 -11
-20 -13 -27 -6 -6 6 -21 11 -33 11 -14 0 -25 8 -29 20 -8 26 -35 26 -42 0 -3
-11 -9 -18 -13 -15 -5 3 -20 0 -35 -7 -18 -8 -29 -8 -36 -1 -8 8 -5 13 10 18
12 3 21 13 21 21 0 8 10 14 23 14 12 0 29 5 37 10 21 14 31 12 45 -7z m287 -5
c-1 -9 4 -18 13 -22 17 -6 21 -46 5 -46 -5 0 -10 7 -10 15 0 9 -8 19 -17 22
-23 9 -32 23 -26 40 7 19 39 11 35 -9z m-1097 2 c-3 -5 -10 -10 -16 -10 -5 0
-9 5 -9 10 0 6 7 10 16 10 8 0 12 -4 9 -10z m1277 -7 c17 -15 19 -15 36 0 24
22 31 21 59 -5 29 -28 29 -49 -1 -78 -30 -27 -50 -22 -74 20 -23 41 -33 40
-36 -2 -1 -15 -16 -28 -33 -28 -21 0 -15 25 12 50 30 28 32 40 5 40 -11 0 -20
5 -20 10 0 16 32 12 52 -7z m-13455 -10 c5 -14 -33 -36 -47 -28 -11 7 20 44
34 41 6 -1 11 -7 13 -13z m13637 1 c20 -20 20 -29 0 -49 -9 -8 -13 -22 -10
-30 4 -11 -2 -15 -19 -15 -30 0 -32 11 -5 35 27 24 27 59 1 52 -14 -3 -18 -1
-14 9 7 19 28 18 47 -2z m90 -6 c3 -7 7 -28 10 -46 5 -28 2 -34 -20 -44 -20
-9 -28 -9 -40 4 -11 11 -12 18 -5 22 6 4 11 2 11 -3 0 -6 7 -11 15 -11 18 0
20 27 3 33 -10 3 -10 7 1 20 12 15 11 17 -8 17 -12 0 -19 5 -16 10 9 14 45 12
49 -2z m606 -24 c0 -9 9 -29 21 -45 l21 -30 25 25 c29 30 23 46 -18 46 -16 0
-29 5 -29 11 0 8 11 9 31 5 17 -3 42 -6 55 -6 33 0 30 -12 -11 -56 -23 -24
-35 -46 -35 -65 0 -19 -5 -29 -14 -29 -16 0 -31 34 -22 49 3 5 -10 29 -29 54
-41 53 -42 57 -15 57 12 0 20 -7 20 -16z m-1060 -36 c0 -6 -7 -7 -16 -4 -9 3
-18 6 -20 6 -3 0 -3 4 1 10 7 11 35 2 35 -12z m-9890 -38 c15 -37 22 -38 38
-1 15 34 40 47 49 25 3 -9 -8 -34 -26 -59 -19 -26 -31 -55 -31 -75 0 -27 -3
-31 -22 -28 -19 2 -22 8 -20 35 2 19 -7 51 -23 82 -14 29 -23 56 -20 61 10 16
41 -6 55 -40z m9950 36 c0 -3 -4 -8 -10 -11 -5 -3 -10 -1 -10 4 0 6 5 11 10
11 6 0 10 -2 10 -4z m1330 -6 c0 -5 -5 -10 -11 -10 -6 0 -8 -8 -4 -19 6 -20
-13 -61 -27 -61 -9 0 -11 62 -2 84 7 17 44 22 44 6z m90 -26 c0 -8 -4 -12 -10
-9 -5 3 -10 10 -10 16 0 5 5 9 10 9 6 0 10 -7 10 -16z m60 -6 c-1 -14 -24 -48
-32 -48 -8 0 -18 42 -12 52 8 13 44 9 44 -4z m-10786 -19 c30 -24 32 -36 9
-61 -13 -14 -14 -21 -5 -30 33 -33 -4 -78 -62 -78 -65 0 -69 7 -61 91 4 41 12
80 17 87 16 19 72 14 102 -9z m11663 9 c47 3 62 -26 54 -103 l-6 -60 -60 -3
c-86 -4 -99 8 -96 94 1 48 33 90 60 78 9 -4 31 -7 48 -6z m-12123 -31 c32 -42
33 -61 1 -92 -30 -31 -62 -32 -92 -3 -33 31 -30 70 8 102 40 34 53 33 83 -7z
m11326 18 c15 -14 18 -14 30 0 12 15 40 21 40 9 0 -3 -8 -19 -17 -35 l-17 -29
-22 21 c-24 23 -47 18 -37 -8 8 -20 -17 -13 -31 9 -7 12 -6 21 3 32 17 20 30
20 51 1z m-10645 -5 c8 -14 -13 -162 -25 -174 -21 -21 -28 11 -23 97 5 75 8
87 24 87 10 0 21 -4 24 -10z m10493 -11 c2 -12 -4 -16 -23 -16 -24 0 -33 15
-18 31 12 11 38 2 41 -15z m-11801 -31 c43 -23 81 -47 85 -52 14 -20 8 -48
-11 -53 -31 -8 -43 -101 -15 -123 9 -8 14 -25 12 -44 l-3 -31 -120 3 c-66 1
-140 6 -165 10 -40 7 -45 11 -48 37 -3 19 3 34 16 44 13 11 21 33 25 64 4 40
1 49 -15 58 -12 6 -18 19 -16 32 3 23 29 38 123 76 28 10 51 20 52 20 1 1 37
-18 80 -41z m703 -7 c0 -34 5 -51 15 -55 18 -7 35 23 35 62 0 28 20 48 34 35
8 -8 6 -71 -3 -103 -6 -20 -14 -25 -45 -28 -55 -4 -76 18 -74 77 2 54 4 61 24
61 10 0 14 -13 14 -49z m200 24 c0 -9 -11 -20 -25 -25 -21 -8 -25 -16 -25 -50
0 -36 -2 -40 -26 -40 -25 0 -25 1 -18 58 3 31 8 60 10 63 2 3 21 6 44 7 30 1
40 -2 40 -13z m320 -25 c20 -20 25 -55 14 -97 -4 -15 -16 -22 -42 -26 -59 -7
-72 5 -70 67 1 44 5 56 22 65 32 15 54 13 76 -9z m10650 10 c0 -5 -4 -10 -9
-10 -6 0 -13 5 -16 10 -3 6 1 10 9 10 9 0 16 -4 16 -10z m1179 -17 c17 -25 22
-26 40 -15 25 15 31 15 31 2 0 -5 -7 -10 -15 -10 -17 0 -21 -35 -5 -45 6 -3
14 5 20 19 10 26 34 35 45 16 4 -6 13 -5 25 2 14 9 22 9 33 -1 12 -9 25 -10
56 -1 34 9 45 8 66 -6 30 -20 34 -54 6 -54 -12 0 -21 8 -23 22 -5 32 -26 33
-34 2 l-7 -28 -9 25 -9 24 -19 -25 c-17 -22 -20 -23 -25 -7 -9 22 -24 22 -41
0 -13 -17 -14 -17 -20 5 -6 22 -24 31 -24 12 0 -5 -9 -14 -20 -20 -15 -8 -23
-6 -39 11 -19 21 -21 21 -47 4 -51 -33 -93 15 -68 79 10 27 60 20 83 -11z
m-11629 -10 c17 -22 21 -36 15 -68 -3 -21 -7 -40 -8 -41 -1 -1 -21 -5 -44 -9
-37 -6 -43 -4 -58 19 -14 21 -15 29 -5 40 6 8 10 24 8 35 -3 22 27 50 54 51 9
0 26 -12 38 -27z m138 -3 c20 -16 23 -27 20 -72 -2 -41 -7 -54 -20 -56 -15 -3
-18 4 -18 47 0 43 -3 51 -19 51 -21 0 -31 -19 -31 -61 0 -19 -5 -29 -14 -29
-23 0 -25 12 -19 74 5 50 8 57 24 53 11 -3 22 -1 25 4 8 14 27 10 52 -11z
m137 -6 c14 -9 25 -25 25 -35 0 -21 -20 -25 -37 -8 -18 18 -43 2 -43 -27 0
-25 2 -25 40 -19 32 5 40 4 40 -9 0 -19 -30 -36 -64 -36 -26 0 -66 45 -66 75
0 17 55 75 71 75 6 0 21 -7 34 -16z m11695 -4 c0 -11 -4 -20 -10 -20 -5 0 -10
9 -10 20 0 11 5 20 10 20 6 0 10 -9 10 -20z m-11540 -19 c26 -25 28 -32 20
-61 -12 -43 -28 -60 -55 -60 -38 0 -54 10 -71 46 -15 31 -14 35 3 58 17 23 47
44 66 45 5 1 22 -12 37 -28z m-5999 -142 c5 -8 10 -18 12 -24 2 -6 10 -5 19 2
20 17 28 7 28 -32 0 -38 -8 -49 -27 -34 -10 9 -18 8 -31 -5 -27 -24 -104 -22
-127 4 -19 21 -16 70 7 98 15 18 106 11 119 -9z m9393 -17 c71 -24 147 -97
181 -173 26 -58 27 -69 22 -151 -6 -99 -21 -132 -91 -206 -93 -99 -246 -128
-373 -72 -61 27 -135 101 -167 166 -26 52 -28 65 -24 143 5 99 23 145 82 209
98 105 226 134 370 84z m-9125 -22 c12 -37 37 -39 53 -5 11 24 28 32 41 19 11
-11 -16 -54 -34 -54 -10 0 -21 -9 -24 -20 -8 -27 -23 -25 -27 3 -2 14 -11 23
-25 25 -16 2 -23 10 -23 26 0 45 24 48 39 6z m340 -4 c16 -19 -16 -73 -32 -57
-7 7 -6 15 3 26 9 11 10 19 2 27 -18 18 -29 1 -30 -47 0 -57 18 -59 75 -10 47
40 50 41 75 18 25 -23 23 -50 -7 -69 -24 -16 -27 -16 -48 5 -21 19 -25 19 -43
6 -24 -18 -58 -19 -72 -2 -10 12 -8 67 4 105 5 17 59 15 73 -2z m-173 -84
c-35 -56 -51 -64 -43 -22 4 18 7 38 7 45 0 8 8 11 19 8 13 -3 20 2 26 19 6 18
8 20 12 6 2 -9 -7 -34 -21 -56z m-186 22 c0 -8 -7 -14 -15 -14 -8 0 -15 9 -15
20 0 13 5 18 15 14 8 -4 15 -12 15 -20z m9602 9 c17 -15 25 -43 13 -43 -3 0
-17 7 -30 16 -23 15 -45 12 -45 -5 0 -5 18 -20 40 -35 47 -31 51 -56 14 -85
-34 -27 -47 -26 -81 3 -22 20 -25 27 -16 37 10 10 18 8 38 -11 20 -19 27 -21
40 -10 21 17 19 29 -7 39 -31 12 -68 48 -68 66 0 18 39 45 64 45 11 0 28 -7
38 -17z m-9057 -31 c0 -35 -1 -37 -22 -27 -29 13 -29 43 0 55 12 5 22 9 22 9
1 1 1 -16 0 -37z m-435 13 c0 -8 -7 -15 -15 -15 -9 0 -12 6 -9 15 4 8 10 15
15 15 5 0 9 -7 9 -15z m9843 -10 c1 -5 -6 -11 -15 -13 -11 -2 -18 3 -18 13 0
17 30 18 33 0z m-5657 -45 c1 -60 -6 -92 -19 -87 -6 2 -11 33 -12 71 -2 56 1
66 14 64 12 -2 16 -16 17 -48z m104 40 c13 -8 11 -11 -7 -16 -29 -8 -29 -15 2
-42 32 -28 32 -45 -1 -71 -33 -26 -46 -26 -68 -2 -21 23 -6 37 22 22 13 -7 22
-7 30 1 17 17 2 38 -29 38 -34 0 -39 22 -13 58 16 23 40 28 64 12z m134 -19
c15 -16 22 -18 37 -8 25 16 36 1 16 -21 -10 -10 -17 -29 -17 -43 0 -19 2 -21
10 -9 8 13 12 13 27 -3 14 -13 15 -21 7 -35 -15 -23 -54 -29 -54 -8 0 19 -31
21 -48 4 -6 -6 -15 -8 -19 -4 -5 4 0 13 10 20 23 17 22 38 -3 54 -22 14 -26
42 -8 60 16 16 22 15 42 -7z m5201 -5 c14 -10 19 -27 19 -62 l1 -49 -46 -3
c-53 -3 -81 17 -62 46 11 19 53 29 53 13 0 -6 -4 -11 -10 -11 -5 0 -10 -7 -10
-16 0 -9 7 -14 17 -12 12 2 18 14 19 41 3 38 -4 44 -36 27 -26 -14 -39 9 -15
27 24 17 46 17 70 -1z m76 -35 c10 -47 16 -48 40 -7 38 65 52 41 19 -32 -30
-66 -61 -67 -76 -2 -3 14 -10 33 -15 43 -5 10 -7 22 -3 28 11 18 28 3 35 -30z
m261 12 c22 -26 28 -50 21 -83 -9 -49 -33 -38 -33 16 0 41 -2 45 -22 42 -18
-2 -24 -11 -28 -43 -3 -27 -10 -41 -22 -43 -15 -3 -18 4 -18 35 0 65 9 81 44
86 17 2 34 5 37 5 3 1 13 -6 21 -15z m-126 -45 c-8 -58 -13 -71 -27 -63 -13 9
-11 89 3 103 24 24 31 12 24 -40z m287 32 c10 -9 -19 -70 -33 -70 -17 0 -11
-21 13 -41 l22 -19 -28 -25 c-35 -31 -47 -31 -80 -1 -25 23 -26 26 -12 53 8
15 15 43 15 62 0 42 24 63 65 55 17 -3 34 -10 38 -14z m-5479 -6 c26 -10 20
-35 -7 -29 -30 8 -59 -21 -36 -36 8 -5 25 -9 38 -9 23 0 24 -1 6 -20 -23 -26
-31 -25 -60 5 -31 30 -31 48 -3 75 23 21 36 24 62 14z m120 -26 c14 -20 17
-21 34 -5 13 12 33 16 76 14 48 -2 61 -7 77 -27 15 -20 19 -22 19 -7 0 9 1 17
3 17 74 12 76 11 88 -12 14 -28 69 -81 76 -74 3 3 -4 17 -16 32 -27 34 -27 54
1 54 26 0 58 -27 58 -49 1 -10 7 -5 16 12 8 15 23 27 34 27 25 0 25 -5 0 -32
-12 -13 -18 -29 -14 -40 4 -14 -1 -17 -23 -17 -15 0 -42 -3 -59 -6 -26 -6 -34
-3 -47 15 l-15 22 -22 -20 c-12 -11 -29 -18 -41 -15 -13 4 -19 0 -19 -11 0 -9
-7 -16 -15 -16 -11 0 -15 11 -16 38 0 20 -3 31 -6 25 -9 -24 -23 -13 -23 17 0
18 -6 33 -15 37 -20 7 -26 1 -28 -33 -3 -41 -27 -43 -27 -1 0 18 -3 37 -7 40
-9 10 -44 -23 -37 -35 3 -5 3 -17 -1 -26 -6 -16 -8 -15 -21 2 -13 18 -15 18
-32 3 -25 -23 -50 -21 -73 6 -23 28 -23 37 -1 65 22 28 57 28 76 0z m712 -29
c-3 -17 -6 -46 -6 -64 0 -28 -5 -35 -32 -44 -31 -11 -35 -10 -63 24 -16 19
-36 35 -43 35 -7 0 -15 7 -18 15 -9 21 -24 8 -24 -21 0 -26 9 -31 28 -12 9 9
12 7 12 -10 0 -33 -27 -38 -56 -11 -30 28 -28 55 7 82 l27 19 32 -23 c29 -22
32 -23 41 -6 6 10 22 17 39 17 20 0 30 5 30 15 0 8 7 15 16 15 13 0 15 -7 10
-31z m241 -5 c-9 -9 -28 6 -21 18 4 6 10 6 17 -1 6 -6 8 -13 4 -17z m123 -15
c0 -15 5 -19 15 -15 24 9 46 -23 43 -63 -4 -48 -22 -46 -26 2 -3 29 -7 37 -20
35 -9 -2 -18 -12 -20 -23 -6 -38 -12 -49 -23 -38 -15 15 0 123 17 123 8 0 14
-9 14 -21z m-64 -6 c10 -15 10 -21 -2 -34 -12 -13 -13 -21 -3 -43 14 -31 6
-44 -16 -26 -9 8 -15 30 -15 60 0 61 12 75 36 43z m215 -44 c-3 -47 -1 -52 12
-40 9 7 17 22 19 34 7 51 78 19 78 -35 0 -39 -38 -57 -77 -38 -16 7 -35 14
-43 14 -9 1 -15 10 -14 24 3 91 5 103 17 99 8 -3 11 -21 8 -58z m-431 36 c0
-20 17 -19 28 2 11 19 42 11 42 -12 0 -19 16 -20 24 0 3 8 10 15 16 15 16 0
12 -27 -5 -34 -8 -3 -15 -17 -15 -31 0 -16 -6 -25 -15 -25 -10 0 -15 10 -15
30 0 36 -21 32 -39 -7 -15 -33 -28 -21 -37 35 -4 28 -3 42 5 42 6 0 11 -7 11
-15z m154 -53 c-4 -18 -13 -32 -21 -32 -11 0 -13 8 -8 33 9 42 15 51 26 40 5
-5 6 -24 3 -41z m540 22 c4 -9 1 -23 -5 -31 -9 -10 -9 -20 0 -40 14 -30 7 -42
-17 -27 -16 10 -27 86 -15 107 8 13 31 7 37 -9z m-69 -3 c3 -6 -2 -14 -10 -19
-15 -8 -15 -10 -1 -21 23 -19 19 -40 -9 -53 -34 -15 -56 3 -38 31 8 13 8 22 1
29 -17 17 -1 42 26 42 14 0 27 -4 31 -9z m255 -11 c14 0 32 -9 41 -21 l16 -22
22 22 c27 27 36 27 67 -4 29 -29 34 -31 34 -10 0 20 63 20 79 1 14 -17 11 -83
-4 -76 -5 3 -10 15 -10 27 0 31 -23 53 -35 33 -5 -8 -10 -25 -10 -37 0 -26
-15 -31 -24 -7 -5 13 -10 13 -35 -5 -36 -26 -48 -26 -63 -1 -13 21 -38 27 -38
10 0 -5 -5 -10 -11 -10 -7 0 -8 11 -4 29 5 24 2 32 -14 41 -18 9 -21 7 -27
-17 -10 -48 -14 -54 -25 -48 -6 4 -8 16 -6 27 3 11 3 26 0 34 -6 17 -33 19
-34 2 -3 -45 -12 -63 -28 -54 -12 8 -2 78 13 89 6 4 25 5 41 2 17 -3 41 -5 55
-5z m390 -10 c0 -15 7 -20 25 -20 31 0 51 -36 41 -74 -9 -38 -26 -32 -26 9 0
28 -4 35 -20 35 -15 0 -22 -9 -26 -30 -11 -55 -25 -32 -20 33 6 74 4 67 16 67
6 0 10 -9 10 -20z m-54 -15 c4 -8 1 -22 -6 -30 -11 -13 -10 -20 0 -41 10 -17
11 -27 3 -35 -23 -23 -45 48 -34 114 2 13 32 7 37 -8z m7479 -60 c55 -27 122
-92 150 -147 27 -56 38 -145 24 -213 -22 -113 -117 -218 -222 -246 -64 -17
-194 -7 -248 19 -162 80 -233 286 -152 446 21 40 92 115 127 133 97 51 223 54
321 8z m445 -70 c0 -10 -10 -15 -34 -15 -19 0 -38 -5 -42 -11 -9 -15 12 -33
39 -34 37 0 27 -30 -11 -32 -40 -2 -44 -5 -36 -26 3 -9 20 -17 37 -19 17 -2
32 -9 35 -15 5 -16 -61 -18 -89 -2 -18 9 -19 17 -13 82 4 40 9 75 11 80 2 4
26 7 54 7 37 0 49 -4 49 -15z m64 -66 l14 -21 23 23 c22 22 24 22 27 6 2 -10
-5 -25 -15 -32 -17 -13 -17 -15 0 -43 21 -37 21 -42 2 -42 -8 0 -19 9 -25 21
-11 19 -13 19 -29 5 -18 -16 -41 -21 -41 -9 0 4 9 16 20 28 l20 22 -20 25
c-24 31 -25 38 -6 38 8 0 21 -9 30 -21z m205 -11 c45 -47 16 -108 -52 -108
-30 0 -38 -3 -34 -14 6 -16 -16 -40 -26 -29 -10 9 -8 118 2 145 13 33 81 37
110 6z m143 -5 c19 -17 25 -53 8 -53 -6 0 -8 -11 -4 -25 5 -20 2 -27 -17 -34
-68 -25 -120 60 -67 109 26 24 55 26 80 3z m152 -15 c9 -12 16 -42 16 -66 0
-36 -3 -43 -17 -40 -13 2 -18 13 -18 38 -1 40 -10 60 -30 60 -16 0 -25 -22
-25 -60 0 -16 -4 -31 -9 -34 -12 -8 -34 21 -26 34 4 6 7 27 7 45 0 29 4 34 27
38 53 8 60 7 75 -15z m124 0 c20 -20 14 -31 -13 -24 -32 8 -34 -15 -2 -29 33
-15 35 -53 3 -65 -31 -11 -53 -4 -66 21 -13 23 3 34 20 14 15 -18 40 -20 40
-2 0 6 -13 18 -30 25 -46 21 -35 72 15 72 12 0 26 -5 33 -12z m140 -14 c32
-22 26 -56 -10 -60 -16 -1 -28 2 -28 7 0 5 5 9 10 9 6 0 10 7 10 16 0 29 -34
10 -41 -23 -3 -18 -4 -35 -1 -38 9 -9 42 -5 42 5 0 6 5 10 10 10 20 0 10 -38
-12 -43 -45 -12 -97 49 -76 88 24 46 58 56 96 29z m130 -6 c20 -20 14 -31 -13
-24 -18 5 -25 2 -25 -9 0 -8 6 -15 13 -15 8 0 22 -9 32 -20 17 -19 17 -22 3
-37 -22 -21 -68 -20 -84 2 -18 24 -6 40 15 21 21 -19 41 -21 41 -3 0 6 -13 18
-30 25 -34 15 -40 45 -12 61 23 14 45 14 60 -1z m-4793 -128 c3 -5 1 -10 -4
-10 -6 0 -11 5 -11 10 0 6 2 10 4 10 3 0 8 -4 11 -10z m-11385 -40 c0 -22 31
-41 37 -23 2 5 10 19 18 29 20 27 39 6 26 -28 -12 -31 -63 -47 -86 -28 -12 10
-15 9 -15 -4 0 -9 -5 -16 -11 -16 -8 0 -9 11 -5 31 3 17 6 38 6 45 0 8 7 14
15 14 8 0 15 -9 15 -20z m169 -21 c13 -39 14 -69 2 -69 -5 0 -12 8 -15 17 -5
12 -9 14 -18 5 -30 -30 -38 1 -13 48 20 38 30 38 44 -1z m61 -13 c0 -19 -4
-38 -10 -41 -6 -4 -10 10 -10 34 0 23 5 41 10 41 6 0 10 -15 10 -34z m62 9
c14 -31 38 -34 31 -4 -5 16 -2 20 8 17 8 -3 12 -12 10 -19 -2 -8 -3 -25 -2
-38 0 -12 -2 -27 -5 -32 -7 -12 -84 66 -84 86 0 24 29 17 42 -10z m150 -10
c14 -30 24 -32 38 -5 6 11 17 20 25 20 26 0 16 -35 -16 -59 -28 -21 -33 -22
-41 -7 -12 22 -28 20 -28 -4 0 -11 -5 -20 -11 -20 -6 0 -8 7 -5 16 3 9 6 31 6
50 0 40 16 44 32 9z m143 1 c-11 -8 -16 -20 -12 -29 3 -9 2 -19 -4 -23 -6 -4
-3 -14 8 -26 18 -20 17 -20 -7 -17 -28 4 -35 25 -25 75 5 28 10 34 32 34 25 0
26 -1 8 -14z m101 -31 c19 -20 34 -43 32 -51 -5 -24 -22 -19 -36 10 -15 31
-32 34 -32 7 0 -11 -4 -22 -10 -26 -7 -4 -8 78 -1 93 3 7 15 -1 47 -33z m44
10 c0 -8 -4 -15 -10 -15 -5 0 -10 7 -10 15 0 8 5 15 10 15 6 0 10 -7 10 -15z
m35 -28 c0 -43 32 -51 40 -10 12 53 19 58 23 18 3 -32 -1 -43 -19 -58 -12 -10
-27 -16 -33 -14 -21 7 -39 53 -32 81 9 35 21 25 21 -17z m-501 2 c-3 -5 -10
-7 -15 -3 -5 3 -7 10 -3 15 3 5 10 7 15 3 5 -3 7 -10 3 -15z m251 -8 c3 -5 1
-12 -5 -16 -5 -3 -10 1 -10 9 0 18 6 21 15 7z m3432 -18 c4 -10 20 -28 35 -41
33 -28 39 -72 9 -72 -10 0 -21 7 -25 15 -10 26 -26 16 -26 -15 0 -20 6 -33 18
-37 27 -9 52 -45 52 -76 0 -29 -41 -77 -67 -77 -7 0 -16 -7 -19 -15 -9 -23
-20 -19 -69 27 -46 43 -58 81 -30 92 9 3 21 -4 31 -19 22 -34 34 -31 34 8 0
25 -8 38 -35 60 -57 45 -50 70 40 142 36 29 44 30 52 8z m359 -58 c12 -8 27
-28 34 -45 12 -28 11 -33 -10 -55 -22 -23 -22 -26 -7 -43 38 -42 8 -112 -55
-127 -38 -10 -94 12 -118 45 -26 37 -25 56 5 86 25 25 32 44 16 44 -15 0 -21
42 -9 64 6 12 18 26 27 33 22 17 92 16 117 -2z m161 -67 c-4 -35 -9 -96 -13
-136 -4 -49 -11 -75 -20 -79 -21 -8 -44 16 -40 41 3 11 8 56 11 99 6 73 5 77
-15 77 -13 0 -20 7 -20 20 0 23 29 38 74 39 l28 1 -5 -62z m261 36 c57 -40 47
-110 -24 -173 -24 -21 -44 -41 -44 -44 0 -3 21 -7 48 -9 41 -3 47 -6 50 -27
l4 -23 -94 7 c-51 4 -97 11 -102 15 -5 5 4 21 21 37 16 15 51 48 77 72 39 37
47 50 44 75 -4 42 -40 48 -73 12 -15 -16 -30 -23 -39 -20 -24 9 -19 32 13 65
34 33 83 39 119 13z m267 -39 c98 -104 8 -287 -120 -245 -53 18 -85 66 -85
129 0 93 49 151 128 151 38 0 49 -5 77 -35z m234 -11 c36 -46 28 -87 -29 -146
-27 -28 -48 -54 -45 -57 3 -2 22 -5 43 -5 33 -1 37 -4 37 -26 0 -24 0 -25 -85
-21 -47 1 -89 6 -93 11 -13 12 2 48 22 55 36 11 121 102 121 129 0 46 -58 57
-81 15 -15 -28 -49 -25 -49 5 0 62 118 92 159 40z m278 0 c18 -3 35 -9 38 -14
4 -6 -19 -57 -49 -115 -74 -139 -78 -145 -99 -145 -24 0 -33 27 -14 48 8 9 29
45 47 80 18 34 36 65 41 68 5 3 9 12 9 20 0 10 -13 14 -49 14 -27 0 -56 3 -65
6 -16 6 -22 35 -9 47 6 6 78 2 150 -9z m235 -28 c15 -22 0 -31 -60 -34 -53 -3
-62 -6 -62 -22 0 -16 5 -18 35 -13 29 5 39 1 65 -25 93 -94 -38 -231 -140
-146 -20 18 -30 34 -28 48 4 27 30 23 63 -9 29 -30 39 -31 65 -5 22 22 26 60
8 78 -15 15 -64 16 -73 2 -3 -5 -18 -10 -32 -10 -24 0 -25 2 -21 43 3 23 13
59 21 80 l17 39 67 -8 c38 -3 71 -12 75 -18z m-1206 -127 c3 -6 -2 -28 -11
-50 -14 -29 -24 -39 -42 -39 -28 0 -28 3 -2 57 20 42 41 54 55 32z m-4522 -8
c3 -5 24 -7 46 -4 32 5 41 2 46 -12 4 -10 2 -26 -5 -37 -8 -13 -8 -24 -1 -38
25 -48 -25 -106 -63 -72 -15 13 -21 13 -42 2 -22 -12 -27 -11 -45 5 -24 22
-25 33 -3 57 13 14 14 21 5 30 -15 15 -15 51 0 66 14 14 54 16 62 3z m363 -63
c14 -13 23 -34 24 -52 0 -17 3 -24 6 -16 7 20 34 50 45 50 4 0 17 -9 28 -20
19 -19 22 -19 36 -5 29 28 62 12 55 -29 -2 -11 2 -17 11 -14 7 3 14 20 16 39
5 53 17 56 61 10 22 -22 42 -41 45 -41 3 0 6 16 6 35 0 24 5 35 15 35 8 0 15
-9 15 -20 0 -13 7 -20 18 -20 11 0 27 -9 37 -20 17 -19 18 -19 42 0 28 22 54
15 76 -20 15 -25 27 -25 27 -1 0 35 59 34 73 -1 4 -9 8 -10 14 -2 13 16 38 23
54 14 11 -7 9 -14 -9 -33 -13 -13 -22 -30 -20 -38 2 -9 -13 -14 -56 -16 -47
-3 -61 0 -71 14 -13 17 -14 17 -32 0 -26 -22 -38 -22 -62 5 -19 20 -22 20 -39
5 -23 -21 -39 -21 -74 -3 -17 9 -30 11 -34 5 -10 -17 -24 2 -24 32 0 34 -23
36 -28 3 -6 -28 -20 -40 -33 -27 -8 8 -16 9 -29 1 -10 -7 -28 -8 -46 -3 -16 5
-47 7 -70 6 -33 -2 -42 1 -50 20 -9 20 -11 21 -27 5 -11 -12 -29 -16 -54 -14
l-38 3 -3 53 c-2 31 2 60 9 68 17 21 59 17 86 -8z m4948 -8 c0 -18 -6 -26 -23
-28 -24 -4 -38 18 -28 44 3 9 15 14 28 12 17 -2 23 -10 23 -28z m2799 -54 l41
-48 -50 -44 c-27 -24 -56 -44 -62 -44 -22 0 -14 29 12 46 31 20 24 35 -13 28
-34 -6 -57 9 -48 31 5 14 14 16 46 12 44 -6 54 9 20 31 -24 15 -27 45 -4 40 9
-2 35 -25 58 -52z m1065 -1 c23 -25 39 -50 36 -55 -9 -15 -35 -12 -41 5 -11
28 -34 17 -34 -17 0 -26 8 -39 35 -61 24 -19 35 -36 35 -54 0 -28 -35 -73 -56
-73 -6 0 -17 -7 -24 -15 -15 -18 -40 -20 -40 -2 -1 6 -15 21 -33 32 -21 13
-33 30 -35 48 -4 35 21 37 44 2 20 -31 34 -24 34 20 0 26 -7 38 -30 55 -32 23
-47 59 -33 84 8 14 82 74 94 75 4 1 25 -19 48 -44z m-7989 -27 c0 -69 -8 -85
-43 -91 -43 -6 -69 17 -65 57 2 24 10 33 33 41 17 5 34 15 38 22 18 29 37 14
37 -29z m6763 10 c7 -22 -4 -38 -27 -38 -27 0 -46 18 -39 36 6 17 60 18 66 2z
m1480 -28 c0 -19 -4 -79 -8 -133 -7 -93 -8 -98 -28 -95 -12 2 -22 10 -21 18 0
8 4 54 7 101 7 81 6 87 -13 92 -29 7 -25 31 8 44 44 18 57 12 55 -27z m306 -5
c101 -86 31 -273 -94 -249 -24 4 -46 19 -66 43 -28 33 -30 41 -27 100 4 58 7
66 41 97 47 44 100 47 146 9z m266 -20 c0 -18 -6 -20 -52 -17 -43 3 -53 1 -62
-16 -16 -30 -15 -31 30 -29 35 1 46 -4 70 -31 38 -42 38 -82 0 -124 -40 -45
-96 -46 -141 -3 -16 16 -30 35 -30 42 0 21 33 14 59 -12 29 -31 51 -32 80 -1
29 30 22 71 -13 87 -18 9 -32 7 -60 -6 -22 -10 -41 -14 -46 -9 -8 9 9 110 23
132 6 9 29 12 75 10 59 -3 67 -5 67 -23z m248 -23 c56 -53 57 -149 2 -208 -29
-30 -38 -34 -83 -34 -45 0 -53 4 -81 35 -27 31 -31 43 -31 93 0 69 25 115 72
136 42 19 86 11 121 -22z m319 -90 c-3 -67 0 -83 12 -88 22 -9 20 -31 -4 -44
-11 -6 -20 -20 -20 -31 0 -29 -33 -20 -40 11 -5 21 -12 25 -45 28 -63 4 -85
11 -85 28 0 9 32 54 71 101 54 64 76 83 92 81 21 -3 22 -8 19 -86z m244 -17
c-6 -80 -5 -85 16 -96 l22 -12 -26 -21 c-13 -12 -28 -29 -31 -39 -10 -26 -31
-16 -35 16 -3 23 -8 27 -36 27 -58 0 -96 11 -96 29 0 9 32 53 70 99 55 64 76
82 97 82 l26 0 -7 -85z m-1306 -47 c0 -23 -40 -80 -53 -75 -15 5 -11 34 9 65
16 24 44 30 44 10z m845 -73 c0 -22 -31 -33 -48 -16 -7 7 -6 15 3 26 17 21 45
15 45 -10z m2949 -59 c20 -23 36 -48 36 -54 0 -18 -73 -81 -92 -82 -25 0 -22
12 7 34 34 26 31 34 -12 38 -28 2 -39 8 -41 22 -4 17 0 18 37 12 47 -7 55 8
21 39 -24 21 -26 35 -6 35 8 0 31 -20 50 -44z m1071 -3 c19 -21 35 -46 35 -55
0 -22 -28 -24 -36 -3 -11 27 -34 17 -34 -14 0 -22 8 -36 31 -52 17 -12 34 -31
38 -43 12 -30 -6 -71 -37 -87 -15 -7 -35 -19 -44 -27 -14 -12 -22 -9 -62 29
-25 24 -46 51 -46 61 0 25 37 23 45 -2 11 -35 35 -24 35 16 0 30 -7 43 -37 68
-31 27 -35 36 -29 60 4 16 21 35 41 48 19 11 35 24 35 29 0 21 32 7 65 -28z
m-1241 -19 c25 -9 19 -34 -7 -34 -30 0 -40 10 -26 27 13 15 12 15 33 7z m1674
-30 c27 -31 28 -59 3 -81 -20 -16 -20 -17 0 -41 25 -33 24 -65 -4 -98 -33 -38
-96 -38 -138 2 -16 15 -29 33 -29 40 0 27 24 25 52 -5 33 -35 53 -39 80 -14
30 27 23 53 -22 70 -44 18 -54 43 -17 43 13 0 32 9 43 21 19 21 18 21 -4 39
-24 20 -51 17 -65 -7 -10 -17 -47 -17 -47 0 0 15 36 51 60 60 26 10 64 -3 88
-29z m316 -25 c32 -37 33 -63 5 -83 l-21 -15 21 -29 c28 -40 27 -58 -8 -93
-44 -44 -111 -38 -153 15 -24 29 -22 55 4 83 19 20 20 27 10 43 -33 53 8 110
78 110 30 0 44 -6 64 -31z m251 -14 c0 -18 -6 -20 -48 -17 -49 3 -77 -9 -77
-34 0 -10 13 -14 44 -14 37 0 48 -5 70 -31 35 -41 34 -80 -3 -121 -48 -54
-127 -42 -162 25 -17 30 18 33 48 3 31 -32 56 -33 83 -4 25 28 26 52 0 78 -24
24 -32 25 -77 4 -47 -23 -57 -10 -42 52 21 84 22 85 97 82 59 -3 67 -5 67 -23z
m232 -11 c37 -24 54 -59 55 -112 0 -91 -48 -148 -125 -145 -34 2 -48 9 -74 37
-30 32 -33 42 -33 97 0 46 5 68 21 91 40 55 101 68 156 32z m-15581 -6 c2 -3
-1 -18 -7 -32 -10 -22 -19 -26 -55 -26 -43 0 -54 10 -54 51 0 18 6 20 56 17
31 -2 58 -6 60 -10z m274 -7 c0 -11 5 -23 10 -26 6 -3 10 -15 10 -26 0 -10 5
-19 10 -19 6 0 10 5 10 10 0 21 39 49 59 43 30 -8 26 -21 -6 -25 -20 -2 -29
-9 -31 -25 -3 -19 1 -23 22 -23 14 0 26 -4 26 -10 0 -14 -32 -12 -53 5 -11 7
-26 11 -34 8 -20 -8 -34 16 -26 44 4 17 1 23 -10 23 -19 0 -31 16 -22 30 11
17 35 11 35 -9z m15625 -17 c43 -46 35 -86 -30 -149 -30 -30 -55 -56 -55 -59
0 -3 24 -6 53 -8 38 -2 52 -7 52 -18 0 -12 -15 -15 -85 -12 -46 1 -89 7 -95
13 -10 10 -2 18 78 82 15 12 37 37 49 55 17 27 19 38 9 58 -13 30 -55 33 -73
4 -14 -21 -43 -27 -53 -10 -4 6 7 24 24 40 39 40 91 41 126 4z m223 -16 c26
-25 29 -64 5 -90 -15 -17 -15 -19 0 -36 46 -50 2 -123 -74 -124 -36 0 -47 5
-72 32 -30 34 -31 53 -3 58 11 2 19 -4 23 -16 2 -11 15 -25 28 -32 20 -11 28
-10 50 4 30 19 31 54 3 67 -10 5 -25 12 -34 17 -23 11 -15 26 20 37 37 12 41
41 10 61 -18 13 -24 12 -47 -6 -14 -11 -33 -20 -42 -20 -27 0 -13 32 25 58 39
26 71 23 108 -10z m-15644 6 c23 -9 20 -27 -3 -19 -14 4 -23 0 -30 -13 -12
-22 3 -42 32 -42 10 0 15 -4 12 -10 -11 -18 -41 -11 -65 15 l-24 26 28 24 c33
28 29 27 50 19z m-234 -8 c0 -2 3 -11 6 -20 4 -11 1 -16 -10 -16 -9 0 -16 -4
-16 -10 0 -5 -7 -10 -14 -10 -12 0 -13 6 -5 30 6 17 17 30 25 30 8 0 14 -2 14
-4z m340 -10 c0 -9 -7 -12 -19 -9 -12 3 -20 -2 -24 -16 -6 -25 0 -31 30 -31
16 0 23 6 23 20 0 11 6 20 14 20 8 0 21 3 29 6 11 4 13 -1 10 -19 -3 -13 2
-28 10 -35 12 -11 17 -7 28 20 11 31 13 31 16 10 3 -13 2 -30 -1 -38 -7 -19
-55 -18 -62 1 -4 8 -14 15 -24 15 -10 0 -23 -7 -30 -15 -16 -19 -25 -19 -50 2
-26 23 -25 48 2 67 28 20 48 20 48 2z m290 -14 c0 -10 -6 -24 -12 -30 -10 -10
-10 -17 0 -32 10 -17 10 -20 -3 -20 -15 0 -17 7 -17 55 0 41 1 45 17 45 8 0
15 -8 15 -18z m-72 -4 c15 -15 16 -54 2 -63 -6 -4 -10 7 -10 24 0 24 -4 31
-20 31 -11 0 -23 -7 -26 -15 -7 -18 -24 -20 -24 -2 0 19 21 37 45 37 12 0 26
-5 33 -12z m141 -27 c-13 -11 -28 -16 -33 -11 -14 13 3 30 31 30 l25 0 -23
-19z m24 -48 c-3 -7 -9 -13 -14 -13 -11 0 -12 34 -2 43 9 10 22 -13 16 -30z
m-43 -3 c0 -5 -2 -10 -4 -10 -3 0 -8 5 -11 10 -3 6 -1 10 4 10 6 0 11 -4 11
-10z m13955 -10 c9 -15 -23 -80 -39 -80 -20 0 -20 23 -1 60 16 31 29 37 40 20z
m-12241 -57 c8 -20 -1 -33 -25 -33 -24 0 -35 25 -19 45 13 16 36 10 44 -12z
m13056 -8 c15 -18 5 -35 -20 -35 -22 0 -34 15 -26 35 7 19 30 19 46 0z
m-11901 -209 c33 -18 61 -57 61 -87 0 -31 -62 -89 -95 -89 -35 0 -95 59 -95
93 0 30 25 61 65 82 36 18 30 18 64 1z m651 -46 c0 -21 -15 -27 -25 -10 -7 12
2 30 16 30 5 0 9 -9 9 -20z m-537 -36 c5 -16 11 -36 13 -44 4 -10 13 1 28 29
26 54 53 69 42 25 -12 -46 -50 -109 -66 -109 -19 0 -41 45 -48 98 -4 30 -2 39
8 35 8 -2 18 -17 23 -34z m198 26 c5 0 16 -11 24 -24 15 -22 15 -29 2 -67 -19
-57 -54 -69 -97 -32 -19 15 -30 34 -30 50 0 31 54 87 76 79 9 -3 20 -6 25 -6z
m-4211 -10 c3 -2 -11 -5 -30 -9 -34 -6 -35 -8 -37 -53 -2 -45 -1 -47 32 -58
39 -13 75 3 75 32 0 10 5 18 10 18 16 0 12 -42 -6 -61 -13 -15 -26 -17 -63
-12 -25 3 -52 10 -58 15 -15 12 -15 107 0 126 8 11 55 12 77 2z m70 -9 c0 -13
-26 -32 -33 -24 -14 13 -6 33 13 33 11 0 20 -4 20 -9z m4322 -13 c10 -10 18
-29 18 -43 0 -37 17 -30 40 15 20 38 34 49 43 33 6 -10 -38 -103 -57 -122 -21
-20 -33 -7 -57 59 -12 33 -24 60 -27 60 -18 0 -42 -38 -42 -65 0 -38 -26 -67
-36 -41 -3 9 -3 41 1 72 l7 55 46 -3 c28 -1 53 -9 64 -20z m151 -70 c-4 -40
-10 -58 -19 -58 -17 0 -19 65 -4 106 16 42 28 16 23 -48z m141 53 c26 -29 13
-109 -21 -122 -35 -13 -41 -12 -68 16 -31 30 -32 71 -3 102 26 28 69 30 92 4z
m-4686 -15 c16 -17 18 -25 9 -29 -17 -6 -55 25 -49 41 5 17 14 15 40 -12z
m328 2 c-9 -12 -16 -37 -16 -55 0 -17 -5 -35 -12 -39 -8 -5 -9 5 -5 36 3 24 1
52 -4 62 -8 16 -5 18 21 18 30 0 31 -1 16 -22z m4434 -18 c6 -22 15 -40 20
-40 9 0 14 15 8 23 -1 1 4 12 11 25 17 33 39 28 43 -10 3 -38 31 -46 36 -11 2
12 10 27 17 33 27 23 27 -15 0 -74 -30 -66 -58 -74 -63 -18 -4 40 -20 41 -35
2 -10 -27 -46 -43 -48 -22 0 4 -3 16 -5 27 -3 11 -8 39 -11 63 -7 55 12 57 27
2z m-4378 -40 c-19 -45 -32 -52 -32 -16 0 37 10 56 30 56 18 0 18 -2 2 -40z
m99 20 c24 -13 27 -70 4 -70 -10 0 -15 10 -15 30 0 17 -4 30 -9 30 -13 0 -20
-25 -14 -49 6 -24 -9 -28 -26 -7 -8 10 -7 21 5 45 17 33 25 37 55 21z m109
-16 c14 -36 12 -54 -5 -54 -8 0 -12 6 -9 14 3 8 0 25 -7 37 -11 22 -12 22 -25
4 -8 -10 -14 -27 -14 -37 0 -10 -4 -18 -10 -18 -10 0 -8 50 4 69 14 22 56 13
66 -15z m75 -4 c-4 -12 -1 -27 5 -35 10 -12 10 -18 0 -30 -17 -21 -31 -9 -24
21 4 14 2 24 -5 24 -15 0 -14 27 2 33 23 10 28 7 22 -13z m113 -6 c21 -15 25
-15 42 1 21 19 51 17 58 -4 3 -9 -1 -11 -16 -7 -15 5 -24 1 -31 -12 -12 -22 3
-44 25 -35 8 3 14 0 14 -6 0 -24 -33 -24 -52 -1 -14 18 -22 20 -30 12 -20 -20
-40 -15 -33 8 4 14 2 20 -8 20 -16 0 -30 24 -20 34 10 10 27 7 51 -10z m167 6
c4 -6 2 -17 -5 -24 -6 -8 -8 -26 -4 -40 7 -28 -10 -37 -20 -10 -12 31 -7 84 8
84 8 0 18 -5 21 -10z m149 -32 c17 -20 20 -20 31 -5 14 20 56 22 73 5 17 -17
15 -68 -2 -68 -9 0 -16 12 -18 33 -4 41 -20 41 -33 1 -8 -26 -13 -29 -27 -20
-13 8 -22 6 -38 -9 -20 -18 -21 -18 -51 11 -21 19 -33 25 -36 17 -9 -25 -19
-13 -15 17 3 23 8 28 16 20 9 -7 19 -5 32 5 27 20 47 18 68 -7z m-359 -29 c11
-17 2 -18 -19 -3 -17 12 -17 14 -4 14 9 0 20 -5 23 -11z m1965 -115 c0 -18
-17 -26 -40 -19 -25 8 -26 31 -3 44 20 11 43 -3 43 -25z m11321 -196 c11 -21
23 -38 26 -38 4 0 24 19 43 42 55 63 69 51 63 -54 -6 -100 -8 -108 -29 -108
-15 0 -16 8 -11 60 7 65 -1 74 -30 37 -31 -39 -40 -39 -63 -2 -12 19 -26 33
-31 29 -5 -3 -9 -28 -9 -55 0 -36 -4 -51 -16 -56 -26 -10 -30 12 -21 104 12
117 34 128 78 41z m-1401 27 c716 -53 711 -52 732 -72 40 -36 46 -68 36 -208
-10 -144 -19 -168 -79 -196 -32 -15 -64 -14 -524 21 -269 21 -503 41 -518 45
-15 4 -39 22 -53 41 l-26 33 11 142 c12 152 16 166 58 199 25 19 36 21 93 16
36 -3 157 -13 270 -21z m1930 -22 c42 -28 52 -53 23 -53 -10 0 -27 7 -37 15
-44 33 -99 2 -99 -55 0 -59 53 -88 101 -54 20 14 23 14 28 -1 8 -21 -13 -41
-51 -49 -67 -14 -140 73 -114 135 16 40 65 79 98 79 14 0 38 -8 51 -17z m-332
-35 c7 -7 12 -25 12 -40 0 -41 36 -39 45 3 7 32 30 48 46 32 6 -6 -3 -34 -26
-79 -46 -89 -70 -116 -98 -112 -27 4 -27 20 1 33 30 13 34 31 17 65 -18 35
-31 110 -18 110 5 0 14 -5 21 -12z m811 -65 c-1 -115 -6 -124 -59 -128 -53 -4
-75 6 -95 45 -20 39 -20 40 15 79 28 30 34 32 70 26 37 -6 40 -5 40 17 0 14 3
28 7 31 17 18 23 1 22 -70z m-15069 32 c0 -20 -15 -31 -35 -27 -19 3 -25 -1
-30 -21 -9 -33 2 -52 20 -37 9 8 14 6 19 -5 3 -9 18 -15 41 -15 29 0 37 5 46
27 8 21 12 24 19 14 10 -16 3 -41 -16 -57 -15 -13 -145 4 -156 20 -9 13 2 99
13 107 9 5 79 0 79 -6z m14760 -5 c21 -21 23 -33 12 -94 -7 -36 -9 -39 -47
-41 -53 -3 -75 9 -75 43 0 28 33 52 73 52 11 0 17 5 14 13 -4 13 -31 14 -59 2
-13 -5 -18 -3 -18 8 0 37 68 49 100 17z m-14690 -20 c-11 -21 -31 -23 -37 -4
-3 10 38 35 45 29 2 -2 -2 -13 -8 -25z m14830 13 c2 -2 -8 -14 -23 -26 -19
-16 -27 -33 -29 -62 -2 -29 -8 -41 -20 -43 -16 -3 -18 5 -18 56 0 84 4 92 48
85 20 -3 39 -8 42 -10z m-14544 -27 c27 -20 9 -32 -22 -15 -24 12 -28 12 -45
-10 -15 -19 -17 -27 -7 -44 16 -31 29 -37 51 -25 26 14 36 0 13 -18 -28 -20
-43 -18 -71 11 -33 32 -32 68 1 94 31 25 53 26 80 7z m288 -48 c-5 -7 -9 -28
-9 -47 0 -28 -5 -36 -28 -44 -22 -7 -32 -5 -48 9 -10 9 -19 24 -19 32 0 21 30
52 50 52 10 0 23 7 30 15 16 19 37 4 24 -17z m263 -24 c36 -40 40 -49 19 -41
-8 3 -24 -6 -37 -19 -18 -19 -32 -24 -59 -22 l-35 3 2 48 c1 27 4 55 7 64 10
25 65 8 103 -33z m-448 4 l20 -33 -31 -16 c-34 -18 -68 -8 -68 18 0 18 17 16
24 -3 7 -18 26 -9 26 13 0 8 -9 17 -20 20 -16 4 -18 8 -9 19 18 22 35 16 58
-18z m64 26 c8 -9 -11 -44 -23 -44 -6 0 -10 8 -10 18 0 27 18 41 33 26z m188
-33 c-8 -14 -7 -22 4 -31 20 -17 19 -23 -6 -38 -26 -17 -34 -10 -20 17 9 16 7
23 -11 36 -20 13 -21 17 -8 25 8 5 23 10 33 10 14 0 16 -4 8 -19z m589 0 c0
-20 -13 -41 -21 -35 -15 9 -10 44 6 44 8 0 15 -4 15 -9z m-263 -17 c3 -8 1
-20 -5 -26 -7 -7 -12 -3 -17 11 -3 12 -11 21 -16 21 -18 0 -9 -37 16 -64 14
-15 23 -32 20 -37 -11 -16 -25 -10 -25 12 0 12 -5 19 -12 16 -7 -2 -12 -14
-11 -26 3 -24 -9 -28 -26 -7 -8 9 -9 21 -2 37 5 13 12 36 15 52 5 21 12 27 32
27 13 0 27 -7 31 -16z m108 5 c4 -5 -1 -20 -12 -31 -13 -15 -15 -22 -5 -25 6
-3 12 -11 12 -20 0 -8 -6 -13 -12 -11 -7 3 -14 25 -16 51 -2 36 0 47 12 47 8
0 18 -5 21 -11z m106 -45 l17 -31 -32 -15 c-56 -27 -85 18 -43 70 16 20 38 10
58 -24z m-171 -4 c0 -16 -4 -30 -10 -30 -5 0 -10 14 -10 30 0 17 5 30 10 30 6
0 10 -13 10 -30z m16342 3 c6 -16 14 -41 17 -58 l7 -30 17 33 c12 22 25 32 41
32 13 0 30 10 38 22 21 31 41 15 34 -26 -8 -40 3 -52 21 -26 8 11 25 20 38 20
15 0 26 7 30 20 15 46 46 9 39 -46 -11 -79 -12 -81 -46 -86 -35 -6 -68 9 -68
29 0 17 -17 17 -23 -1 -3 -7 -20 -16 -39 -20 -26 -5 -36 -3 -50 14 -16 19 -17
20 -27 3 -10 -17 -12 -17 -30 5 -23 26 -38 28 -63 5 -24 -21 -45 -5 -30 23 5
11 18 37 28 59 29 62 48 70 66 28z m-16482 -3 c0 -5 -5 -10 -11 -10 -5 0 -7 5
-4 10 3 6 8 10 11 10 2 0 4 -4 4 -10z m6310 -117 c0 -5 -14 -181 -30 -393 -16
-212 -30 -391 -30 -397 0 -7 -5 -13 -10 -13 -7 0 -9 13 -5 33 7 44 55 674 55
731 0 25 5 46 10 46 6 0 10 -3 10 -7z m645 -112 c3 -5 1 -12 -5 -16 -5 -3 -10
1 -10 9 0 18 6 21 15 7z m-4043 -68 c15 -15 28 -33 28 -40 0 -15 -26 -18 -35
-3 -4 6 -11 8 -16 4 -15 -9 1 -45 32 -72 16 -13 29 -30 29 -37 0 -7 -19 -29
-42 -49 -44 -38 -43 -38 -95 8 -23 19 -32 56 -14 56 5 0 14 -7 21 -15 7 -8 19
-15 26 -15 24 0 15 38 -16 70 -38 39 -38 59 2 92 41 34 45 34 80 1z m168 -10
c54 -37 54 -73 0 -124 -48 -46 -50 -60 -8 -57 24 2 33 -2 36 -14 3 -14 -3 -18
-30 -18 -55 0 -108 12 -108 24 0 6 20 27 44 46 25 19 50 45 57 57 24 45 -18
81 -52 44 -21 -22 -39 -20 -39 5 0 12 54 54 70 54 3 0 17 -8 30 -17z m205 -78
c0 -33 4 -68 9 -77 5 -11 1 -26 -11 -42 -22 -30 -39 -33 -46 -7 -3 13 -18 20
-50 25 -26 4 -49 11 -52 16 -3 6 20 41 52 80 41 49 64 69 78 68 17 -3 20 -11
20 -63z m179 40 c14 -13 26 -29 26 -35 0 -15 -26 -12 -40 5 -16 20 -39 19 -62
-2 -28 -25 -24 -45 8 -33 28 11 37 8 72 -23 32 -29 29 -71 -7 -96 -42 -30 -74
-27 -106 11 -24 28 -27 38 -23 87 4 47 10 59 39 83 41 34 58 35 93 3z m259
-14 c13 -13 -67 -177 -95 -195 -22 -13 -35 0 -22 22 31 49 74 132 74 141 0 6
-20 11 -45 11 -39 0 -45 3 -45 21 0 21 4 21 61 16 34 -3 66 -10 72 -16z m1422
4 c105 -7 287 -21 405 -30 233 -17 258 -24 293 -83 19 -34 22 -101 7 -201 -7
-48 -16 -71 -36 -92 -50 -52 -64 -53 -302 -35 -119 9 -314 23 -432 32 -118 8
-227 20 -243 26 -15 6 -41 27 -58 46 l-32 36 6 107 c6 121 20 159 70 189 39
24 70 25 322 5z m-1282 -20 c15 -14 27 -30 27 -36 0 -25 -31 -79 -54 -94 -37
-24 -34 -46 4 -39 22 5 31 2 36 -10 10 -26 0 -29 -71 -21 -54 5 -65 10 -65 25
0 10 9 21 19 25 28 8 91 81 91 104 0 27 -37 37 -59 17 -22 -20 -41 -21 -41 -2
0 18 47 56 69 56 9 0 29 -11 44 -25z m-4794 -1 c20 -15 22 -22 17 -68 -4 -30
-13 -56 -23 -63 -24 -18 -108 -16 -127 2 -19 19 -11 101 12 128 19 22 89 23
121 1z m4987 -12 c61 -49 58 -139 -6 -189 -27 -22 -84 -16 -111 13 -19 21 -24
36 -24 81 0 49 3 58 33 84 37 33 76 37 108 11z m267 -33 c22 -24 27 -39 27
-80 0 -43 -5 -55 -29 -80 -40 -40 -87 -40 -126 1 -24 25 -29 38 -28 80 1 54
12 73 58 102 36 22 61 16 98 -23z m-4960 17 c9 -7 17 -19 17 -27 0 -10 -3 -10
-12 -1 -28 28 -78 7 -78 -34 0 -32 24 -47 62 -39 31 6 32 5 14 -10 -43 -33
-96 -6 -96 50 0 31 19 56 50 68 22 8 23 8 43 -7z m5166 -22 c54 -45 54 -125
-1 -176 -40 -37 -80 -37 -119 1 -25 25 -29 37 -29 82 0 46 4 55 36 85 42 41
72 43 113 8z m-5082 -15 c14 -5 30 -23 36 -39 8 -21 16 -28 28 -25 11 4 18 -2
22 -17 4 -12 4 -24 2 -26 -7 -7 -58 37 -70 61 -15 31 -39 28 -43 -5 -4 -34
-22 -37 -22 -4 0 36 13 92 18 78 2 -7 15 -18 29 -23z m189 -10 c3 -6 1 -22 -6
-35 -11 -19 -11 -26 0 -39 14 -17 5 -35 -9 -19 -10 11 -21 91 -13 98 9 9 20 7
28 -5z m-70 -14 c17 -17 15 -66 -3 -72 -8 -3 -11 6 -10 24 2 22 -2 27 -15 25
-12 -2 -18 4 -18 18 0 24 25 27 46 5z m13992 1 c-10 -7 -22 -24 -27 -37 -7
-18 -10 -19 -10 -6 -1 25 21 57 39 57 12 -1 12 -3 -2 -14z m-10005 -52 c10
-10 -22 -64 -38 -64 -19 0 -19 20 1 48 15 22 26 27 37 16z m9973 -71 c-11 -11
-17 4 -9 23 7 18 8 18 11 1 2 -10 1 -21 -2 -24z m-9383 21 c9 -10 -4 -34 -18
-34 -17 0 -28 17 -20 30 7 11 28 13 38 4z m2787 -72 c0 -14 -13 -13 -52 3 -31
12 -21 -22 17 -59 42 -42 44 -59 9 -91 -45 -42 -64 -42 -101 -1 -18 19 -33 40
-33 46 0 16 37 12 44 -6 8 -21 26 -8 26 20 0 14 -10 30 -25 40 -39 26 -34 69
12 101 l37 25 33 -32 c18 -18 33 -38 33 -46z m163 23 c15 -14 27 -30 27 -35 0
-15 -22 -12 -42 7 -25 22 -72 7 -76 -25 -4 -25 1 -27 29 -11 16 8 26 7 44 -5
50 -33 55 -77 12 -116 -54 -51 -127 2 -127 92 0 44 4 54 34 84 41 41 62 42 99
9z m197 -15 c0 -17 -7 -20 -45 -20 -33 0 -45 -4 -45 -15 0 -10 10 -15 29 -15
35 0 71 -40 71 -77 0 -35 -42 -73 -81 -73 -37 0 -69 24 -69 52 0 24 12 23 35
-2 33 -37 75 -19 75 31 0 33 -28 46 -60 29 -34 -18 -51 -6 -44 32 12 62 29 78
84 78 43 0 50 -3 50 -20z m268 -40 c24 -36 29 -88 11 -123 -37 -73 -128 -77
-164 -7 -30 58 -12 126 42 157 46 26 80 18 111 -27z m1362 34 c118 -9 311 -24
428 -33 l213 -17 37 -37 37 -38 -1 -112 c-1 -132 -13 -163 -79 -198 l-41 -22
-235 17 c-558 39 -643 47 -677 63 -65 31 -82 82 -70 211 9 101 23 133 73 163
37 23 47 23 315 3z m-1160 -36 c30 -30 32 -35 28 -87 -4 -46 -10 -59 -37 -83
-35 -31 -66 -35 -99 -12 -85 59 -46 212 55 214 12 0 36 -14 53 -32z m214 -17
c20 -20 30 -43 33 -74 5 -40 2 -48 -29 -83 -47 -50 -88 -52 -131 -4 -27 30
-29 38 -25 88 4 46 10 59 34 79 41 32 84 30 118 -6z m257 -22 c35 -38 39 -97
9 -146 -35 -58 -110 -59 -148 -3 -34 49 -26 113 17 152 43 38 84 37 122 -3z
m182 10 c41 -21 57 -51 57 -107 0 -48 -4 -57 -31 -83 -35 -33 -73 -37 -107
-13 -62 43 -64 132 -5 184 37 33 53 36 86 19z m-1053 -109 c0 -20 -24 -60 -37
-60 -16 0 -17 24 -3 51 11 19 40 27 40 9z m8251 -49 c11 -13 19 -29 19 -35 0
-6 -11 6 -25 26 -14 20 -25 43 -24 50 0 9 2 8 6 -2 3 -8 14 -26 24 -39z
m-7561 -12 c0 -25 -33 -22 -38 4 -2 12 3 17 17 17 15 0 21 -6 21 -21z m5770
-20 c215 -14 204 -4 195 -179 -7 -116 -10 -134 -29 -152 -17 -16 -30 -19 -66
-14 -25 3 -100 9 -168 12 -101 6 -128 11 -148 27 -26 20 -26 20 -18 126 4 58
7 115 6 126 -2 27 25 65 46 65 9 0 91 -5 182 -11z m-14807 -29 c24 -19 25 -25
20 -78 -8 -77 -15 -84 -77 -76 -52 6 -82 28 -67 48 4 6 7 29 6 51 -2 31 2 44
19 57 28 23 68 22 99 -2z m16654 -42 c-3 -8 -6 -5 -6 6 -1 11 2 17 5 13 3 -3
4 -12 1 -19z m-16417 -13 c0 -14 -4 -25 -10 -25 -5 0 -10 11 -10 25 0 14 5 25
10 25 6 0 10 -11 10 -25z m87 -20 c9 -24 -6 -31 -21 -9 -13 18 -15 17 -23 -16
-5 -19 -13 -34 -19 -32 -5 1 -9 7 -8 12 1 6 2 19 3 29 2 29 58 42 68 16z
m16363 -18 c0 -5 -4 -5 -10 -2 -5 3 -10 14 -10 23 0 15 2 15 10 2 5 -8 10 -19
10 -23z m-16168 -4 l28 -27 -22 -23 c-12 -13 -29 -23 -39 -23 -19 0 -76 66
-66 77 9 8 35 -15 42 -38 10 -29 45 -25 45 6 0 20 -5 25 -26 25 -22 0 -25 2
-14 15 17 20 19 19 52 -12z m-152 7 c0 -5 -4 -10 -10 -10 -5 0 -10 5 -10 10 0
6 5 10 10 10 6 0 10 -4 10 -10z m290 -5 c13 -15 8 -19 -22 -16 -14 2 -18 -5
-18 -29 0 -27 3 -30 20 -25 11 3 20 2 20 -4 0 -30 -45 -17 -69 21 -10 16 -7
22 16 43 33 29 37 30 53 10z m-420 -20 c0 -8 -4 -17 -10 -20 -6 -4 -10 5 -10
20 0 15 4 24 10 20 6 -3 10 -12 10 -20z m521 15 c10 -6 19 -19 19 -30 0 -26
-18 -35 -22 -10 -5 31 -23 29 -26 -2 -2 -20 1 -28 12 -28 9 0 16 -4 16 -10 0
-17 -35 -11 -53 10 -22 26 -21 29 5 57 25 27 23 26 49 13z m-425 -47 c-11 -11
-19 6 -11 24 8 17 8 17 12 0 3 -10 2 -21 -1 -24z m74 6 c0 -20 -24 -26 -35 -9
-4 6 -4 17 -1 25 7 20 36 7 36 -16z m157 -21 c-3 -8 -6 -5 -6 6 -1 11 2 17 5
13 3 -3 4 -12 1 -19z m16150 0 c-3 -8 -6 -5 -6 6 -1 11 2 17 5 13 3 -3 4 -12
1 -19z m43 -71 c0 -21 -25 2 -32 29 l-7 29 19 -25 c11 -14 20 -29 20 -33z
m-393 -64 c92 -191 182 -427 169 -440 -3 -3 -2 -11 3 -17 5 -6 12 -26 16 -43
5 -26 4 -32 -8 -28 -16 7 -47 67 -47 93 0 37 -106 339 -146 414 -8 14 -14 33
-14 41 0 8 -7 20 -15 27 -8 7 -15 19 -15 26 0 32 17 9 57 -73z m418 0 c20 -47
19 -78 -1 -33 -30 66 -34 81 -24 75 6 -4 17 -22 25 -42z m-12675 3 c0 -3 -4
-8 -10 -11 -5 -3 -10 -1 -10 4 0 6 5 11 10 11 6 0 10 -2 10 -4z m12710 -102
c0 -8 -4 -12 -10 -9 -5 3 -10 13 -10 21 0 8 5 12 10 9 6 -3 10 -13 10 -21z
m-823 -36 c-3 -8 -6 -5 -6 6 -1 11 2 17 5 13 3 -3 4 -12 1 -19z m860 -66 c25
-75 28 -92 13 -92 -5 0 -10 9 -10 20 0 11 -4 28 -9 38 -12 24 -31 86 -31 102
0 25 13 0 37 -68z m-837 32 c0 -8 -4 -12 -10 -9 -5 3 -10 10 -10 16 0 5 5 9
10 9 6 0 10 -7 10 -16z m35 -63 c3 -5 1 -12 -5 -16 -5 -3 -10 1 -10 9 0 18 6
21 15 7z m-16122 -17 c53 -10 67 -29 60 -83 -7 -62 -23 -72 -97 -65 -82 7 -89
15 -80 83 8 69 19 85 56 77 15 -3 43 -9 61 -12z m16157 -66 c18 -61 33 -102
39 -108 3 -3 12 -16 19 -29 13 -21 12 -23 -3 -17 -9 3 -20 6 -25 6 -5 0 -11
18 -15 40 -4 22 -15 58 -26 79 -20 42 -24 71 -11 71 5 0 15 -19 22 -42z
m-15850 12 c0 -21 -24 -28 -35 -10 -8 14 3 30 21 30 8 0 14 -9 14 -20z m273
-34 c19 -13 27 -27 27 -47 0 -37 -18 -38 -22 -1 -4 33 -29 36 -43 5 -15 -36
-28 -27 -21 15 3 20 6 46 6 57 1 18 2 18 13 4 7 -8 24 -24 40 -33z m-183 4 c0
-5 -4 -10 -8 -10 -4 0 -13 -13 -19 -30 -13 -36 -41 -39 -66 -9 -17 19 -20 20
-36 5 -28 -26 -41 -20 -30 12 8 24 15 27 49 27 33 0 40 -3 42 -23 4 -27 22
-31 26 -5 2 10 5 24 7 31 5 14 35 16 35 2z m90 -5 c0 -9 -8 -14 -22 -12 -18 2
-23 -3 -23 -23 0 -17 6 -25 17 -25 25 0 33 -14 14 -21 -11 -4 -26 2 -42 16
-29 28 -29 31 -4 58 24 25 60 29 60 7z m200 -29 c0 -8 7 -16 15 -20 19 -7 20
-46 1 -46 -8 0 -17 11 -20 24 -3 13 -9 31 -12 40 -3 9 -1 16 5 16 6 0 11 -6
11 -14z m60 5 c0 -6 -4 -13 -10 -16 -5 -3 -10 1 -10 9 0 9 5 16 10 16 6 0 10
-4 10 -9z m80 -6 c13 -16 6 -47 -15 -65 -28 -23 -75 28 -55 60 11 18 30 2 30
-26 0 -23 10 -31 22 -18 4 3 2 19 -2 35 -9 31 0 38 20 14z m-193 -42 c-4 -17
-4 -17 -12 0 -4 9 -4 25 0 35 8 16 8 16 12 0 3 -10 3 -26 0 -35z m14158 -52
c-3 -20 -7 -67 -10 -106 -2 -38 -4 -71 -4 -73 -1 -2 -11 -2 -23 0 -21 3 -23 7
-20 63 2 33 5 72 8 86 4 21 0 28 -16 32 -32 8 -22 41 15 48 42 8 56 -6 50 -50z
m185 -36 c0 -58 4 -77 15 -81 22 -9 18 -31 -5 -37 -12 -3 -20 -14 -20 -27 0
-30 -44 -24 -48 6 -2 17 -12 23 -48 27 -61 7 -72 18 -48 55 43 67 108 132 131
132 22 0 23 -3 23 -75z m184 49 c15 -15 26 -38 26 -53 0 -30 -27 -75 -59 -97
-31 -22 -26 -34 14 -34 23 0 38 -6 42 -16 10 -27 -10 -33 -87 -26 -93 9 -100
24 -36 73 50 38 82 88 73 113 -9 23 -43 20 -61 -5 -16 -23 -46 -20 -46 5 0 21
58 66 84 66 13 0 35 -12 50 -26z m1251 16 c3 -5 1 -10 -4 -10 -6 0 -11 5 -11
10 0 6 2 10 4 10 3 0 8 -4 11 -10z m-25 -35 c0 -8 5 -15 10 -15 6 0 10 -7 10
-15 0 -21 -16 -19 -23 3 -4 9 -14 28 -24 41 -17 24 -17 24 5 12 12 -6 22 -18
22 -26z m106 -2 c-8 -9 -37 18 -30 28 3 5 12 2 21 -6 8 -9 13 -19 9 -22z
m-1197 -30 c-1 -32 -4 -85 -8 -118 -6 -56 -8 -60 -31 -60 -25 0 -25 1 -22 70
2 39 5 78 8 87 3 10 -3 19 -16 23 -43 14 -10 52 48 54 20 1 22 -3 21 -56z
m1156 27 c3 -11 13 -20 21 -20 20 0 18 -8 -16 -47 -22 -25 -30 -29 -30 -16 0
10 7 27 15 37 13 18 13 22 -7 43 -18 19 -19 23 -5 23 8 0 19 -9 22 -20z m-793
-19 c31 -28 33 -34 33 -95 0 -57 -3 -69 -25 -91 -38 -37 -81 -47 -121 -27 -77
40 -89 154 -23 212 46 40 92 40 136 1z m198 4 c16 -9 32 -26 36 -40 10 -42 0
-49 -33 -21 -37 31 -54 33 -77 7 -19 -21 -12 -51 7 -32 21 21 55 11 86 -24 39
-44 39 -68 2 -106 -38 -37 -88 -39 -127 -5 -24 20 -28 32 -32 90 -4 66 -4 66
36 106 44 44 58 47 102 25z m480 5 c0 -5 -5 -10 -11 -10 -5 0 -7 5 -4 10 3 6
8 10 11 10 2 0 4 -4 4 -10z m210 0 c12 -8 9 -10 -13 -10 -16 0 -26 4 -22 10 8
12 16 12 35 0z m-496 -21 c57 -45 54 -89 -10 -152 l-38 -37 40 0 c49 0 53 -3
46 -36 -4 -25 -6 -25 -71 -19 -122 11 -133 19 -84 58 96 79 120 120 87 148
-14 12 -19 10 -38 -14 -29 -36 -58 -36 -54 0 2 18 15 35 37 50 42 28 51 29 85
2z m246 11 c0 -5 -5 -10 -11 -10 -5 0 -7 5 -4 10 3 6 8 10 11 10 2 0 4 -4 4
-10z m-22 -19 c24 -9 -90 -237 -123 -244 -11 -2 -28 -8 -38 -12 -15 -6 -13 1
10 41 16 27 39 70 51 96 13 26 27 50 33 53 16 11 -2 26 -22 20 -11 -4 -32 -4
-48 0 -22 5 -30 13 -33 33 l-4 27 86 -7 c47 -3 86 -7 88 -7z m82 -16 c0 -8 -4
-15 -8 -15 -10 0 -35 -51 -28 -57 8 -8 49 25 62 49 12 21 13 19 20 -30 7 -55
24 -78 100 -139 36 -30 43 -29 73 10 13 17 11 17 -25 12 -32 -4 -44 -1 -67 19
-40 37 -45 75 -13 113 49 59 116 52 154 -16 30 -53 28 -106 -6 -156 -38 -54
-86 -68 -131 -36 -17 12 -34 33 -37 47 -4 13 -14 29 -23 34 -15 7 -17 4 -14
-23 2 -18 0 -26 -3 -18 -5 10 -8 10 -14 1 -4 -7 0 -26 9 -44 15 -29 16 -29 19
-8 4 25 17 29 26 7 8 -23 -31 -40 -49 -21 -8 8 -15 18 -15 23 0 5 -10 13 -22
18 -13 6 -22 16 -20 23 3 14 -14 16 -23 2 -11 -17 -25 -11 -25 12 0 12 -3 19
-6 15 -9 -9 6 -87 17 -87 5 0 9 9 9 21 0 26 32 22 36 -5 1 -10 9 -23 16 -28 8
-5 4 -7 -13 -4 -47 8 -53 -5 -54 -111 0 -80 -3 -98 -15 -101 -13 -2 -19 14
-29 75 -7 43 -15 98 -17 123 -3 25 -10 55 -16 67 -8 16 -6 31 8 62 10 23 21
41 26 41 4 0 8 7 8 15 0 9 7 18 15 21 8 4 15 12 15 20 0 17 42 84 53 84 4 0 7
-7 7 -15z m647 -7 c-3 -8 -6 -5 -6 6 -1 11 2 17 5 13 3 -3 4 -12 1 -19z
m-10892 -23 l490 -36 34 -37 c34 -38 66 -74 434 -500 120 -139 224 -252 232
-252 8 0 283 -20 612 -45 328 -25 604 -45 613 -45 13 0 188 -190 288 -314 19
-22 40 -45 48 -49 12 -7 598 -57 669 -57 11 0 74 46 140 103 603 515 593 507
633 502 37 -5 135 -12 797 -60 l360 -27 40 -42 c22 -23 54 -57 70 -76 152
-176 230 -262 244 -269 9 -5 66 -11 126 -15 189 -12 628 -45 672 -51 48 -7 -5
-47 467 357 159 137 295 248 302 248 26 0 14 -25 -30 -60 -24 -20 -70 -59
-102 -87 -33 -29 -175 -151 -317 -273 -202 -172 -265 -220 -286 -220 -45 0
-835 60 -847 64 -6 3 -88 92 -182 199 l-170 194 -114 7 c-62 3 -326 22 -586
42 -412 31 -476 34 -490 21 -9 -8 -161 -137 -337 -287 -176 -150 -329 -281
-340 -291 -20 -17 -28 -17 -265 1 -135 10 -294 22 -353 26 -92 6 -112 10 -129
28 -11 12 -85 96 -164 187 l-145 166 -177 12 c-97 6 -260 18 -362 26 -102 8
-295 22 -430 30 -135 9 -255 19 -267 21 -13 2 -74 64 -150 153 -70 81 -209
242 -308 357 -99 114 -196 225 -215 245 l-35 36 -240 17 c-132 10 -355 26
-495 36 -246 19 -255 19 -275 1 -19 -17 -366 -312 -488 -414 l-57 -48 -345 25
c-190 14 -358 26 -373 26 -35 0 -60 16 -47 29 7 6 136 0 375 -18 334 -26 367
-27 390 -13 23 14 409 339 505 425 22 20 51 36 65 37 14 0 246 -16 515 -35z
m10673 8 c47 -5 53 -8 50 -27 -2 -17 -10 -21 -43 -22 -62 -2 -65 -3 -65 -18 0
-9 7 -12 18 -9 49 12 110 -52 98 -103 -10 -37 -56 -74 -93 -74 -37 0 -93 42
-93 71 0 27 26 24 63 -7 l31 -26 24 27 c22 26 22 28 6 46 -18 21 -49 25 -59 9
-3 -5 -17 -10 -31 -10 -28 0 -31 19 -13 85 19 74 11 70 107 58z m162 -61 c0
-27 -3 -83 -6 -125 -7 -73 -8 -77 -31 -77 l-25 0 4 95 c3 93 2 95 -19 95 -20
0 -21 2 -11 25 11 24 25 32 66 34 20 1 22 -4 22 -47z m186 -40 c0 -42 5 -77
12 -84 16 -16 15 -35 -1 -45 -8 -4 -16 -16 -20 -25 -9 -26 -45 -23 -49 5 -2
18 -10 23 -48 25 -42 3 -70 16 -70 32 0 9 51 74 102 128 58 62 73 55 74 -36z
m-966 54 c0 -3 -4 -8 -10 -11 -5 -3 -10 -1 -10 4 0 6 5 11 10 11 6 0 10 -2 10
-4z m1317 -15 c40 -25 50 -54 29 -87 -14 -21 -15 -27 -2 -52 42 -83 -91 -140
-151 -65 -28 35 -29 51 -2 79 20 21 20 23 4 48 -16 24 -16 27 2 50 16 23 52
43 78 45 6 1 24 -8 42 -18z m-1347 -11 c0 -11 -4 -20 -10 -20 -5 0 -10 9 -10
20 0 11 5 20 10 20 6 0 10 -9 10 -20z m1549 -5 c42 -21 55 -71 26 -95 -13 -11
-13 -15 0 -33 8 -12 15 -31 15 -42 0 -25 -35 -60 -68 -68 -74 -18 -144 71 -93
117 18 17 18 19 3 47 -17 30 -17 30 16 59 36 33 60 37 101 15z m-1579 -60 c0
-5 -5 -3 -10 5 -5 8 -10 20 -10 25 0 6 5 3 10 -5 5 -8 10 -19 10 -25z m-217
-75 c-5 -20 -15 -25 -26 -13 -8 7 11 33 23 33 5 0 6 -9 3 -20z m317 -23 c0
-20 -9 -44 -21 -58 l-22 -24 7 30 c4 17 10 42 13 58 7 38 23 34 23 -6z m456
-12 c19 -28 12 -44 -10 -26 -17 14 -28 51 -15 51 5 0 16 -11 25 -25z m-186
-20 c0 -8 -2 -15 -4 -15 -2 0 -6 7 -10 15 -3 8 -1 15 4 15 6 0 10 -7 10 -15z
m-578 -58 c1 -21 -2 -40 -5 -44 -4 -3 -7 7 -7 23 0 16 -3 40 -6 54 -5 19 -4
22 5 14 6 -6 12 -27 13 -47z m769 -24 c-9 -16 -10 -14 -11 12 0 21 3 26 11 18
8 -8 8 -16 0 -30z m-764 -80 c-3 -10 -5 -4 -5 12 0 17 2 24 5 18 2 -7 2 -21 0
-30z m-1132 -6 c-10 -5 -14 -16 -10 -28 4 -11 2 -19 -4 -19 -6 0 -11 9 -11 20
0 10 -8 24 -17 29 -28 16 3 32 34 18 20 -9 22 -12 8 -20z m650 -11 c154 -9
347 -20 429 -26 82 -6 213 -13 290 -16 78 -3 148 -8 156 -10 8 -3 62 -9 120
-14 58 -5 209 -19 335 -30 127 -12 253 -24 280 -25 28 -2 66 -6 85 -8 19 -3
126 -15 238 -28 111 -13 202 -27 202 -32 0 -5 -45 -7 -100 -5 -66 2 -100 -1
-100 -8 0 -32 -32 -114 -45 -114 -8 0 -15 -4 -15 -10 0 -5 -7 -10 -16 -10 -13
0 -15 -7 -10 -34 6 -33 6 -33 -35 -40 -37 -6 -40 -9 -35 -30 5 -19 1 -25 -19
-30 -14 -4 -25 -13 -25 -20 0 -16 -27 -29 -41 -20 -6 3 -7 -5 -3 -20 4 -16 2
-26 -5 -26 -6 0 -8 -8 -4 -17 5 -15 3 -16 -8 -5 -21 19 -30 14 -23 -13 5 -19
2 -25 -9 -25 -9 0 -19 -9 -22 -20 -4 -11 -9 -18 -13 -16 -4 2 -8 -10 -9 -27
-2 -17 -11 -43 -22 -57 -10 -15 -26 -61 -36 -103 -11 -51 -22 -77 -31 -77 -16
0 -19 41 -4 56 11 11 17 81 7 90 -4 4 -7 2 -7 -3 0 -6 -11 -10 -24 -9 -20 3
-25 -2 -31 -30 -3 -19 -10 -34 -15 -34 -6 0 -10 -6 -10 -14 0 -17 -51 -28 -68
-13 -10 8 -14 5 -19 -11 -3 -12 -12 -22 -20 -22 -9 0 -13 6 -10 14 4 10 1 13
-9 9 -28 -11 -15 -33 21 -33 18 0 56 -4 82 -9 56 -11 212 -33 263 -37 36 -3
156 -18 270 -33 124 -16 -6 -12 -380 14 -376 26 -908 64 -1250 90 -993 75
-1342 104 -1350 112 -3 3 126 2 287 -1 254 -5 291 -3 286 9 -3 8 0 15 6 15 6
0 11 -7 11 -15 0 -8 9 -15 20 -15 24 0 26 16 3 28 -15 9 -13 13 12 34 19 17
24 27 17 32 -7 4 -12 1 -12 -8 0 -9 -9 -16 -20 -16 -11 0 -20 -4 -20 -8 0 -5
-7 -9 -15 -9 -8 0 -15 6 -15 14 0 7 7 13 15 13 8 0 15 7 15 15 0 8 9 15 20 15
23 0 27 28 5 36 -8 4 -21 1 -29 -5 -10 -9 -15 -8 -19 2 -3 9 -16 12 -35 9 -23
-3 -34 2 -51 23 -18 24 -21 25 -21 8 0 -10 5 -24 12 -31 6 -6 8 -15 4 -19 -4
-5 -13 -1 -19 8 -7 8 -20 18 -29 22 -10 3 -18 17 -19 29 l0 23 -11 -22 c-14
-29 -48 -31 -48 -4 0 11 -4 23 -10 26 -5 3 -10 -3 -10 -13 0 -35 -82 -44 -102
-12 -16 25 -24 25 -31 1 -4 -16 -10 -18 -46 -11 -23 4 -45 11 -49 15 -8 8 -5
122 4 136 3 5 27 9 55 9 42 0 49 -3 49 -19 0 -11 -5 -23 -10 -26 -6 -4 -9 -14
-8 -23 2 -12 -5 -18 -24 -20 -39 -5 -37 -32 2 -32 21 0 30 5 30 16 0 26 49 66
71 59 14 -5 19 -1 19 14 0 26 38 29 47 4 4 -10 13 -28 21 -41 13 -20 17 -21
24 -8 11 20 48 21 48 1 0 -20 16 -19 24 1 4 12 13 14 32 10 14 -4 32 -2 39 4
9 7 19 3 39 -16 19 -20 26 -23 26 -11 0 10 11 17 32 19 17 2 34 9 36 17 3 10
0 12 -12 8 -17 -7 -66 31 -66 50 0 5 -14 20 -30 35 -30 27 -32 51 -4 62 17 7
19 49 2 44 -7 -3 -14 -15 -16 -27 -2 -14 -9 -21 -20 -19 -14 3 -17 15 -17 63
0 52 3 60 20 63 11 2 28 11 38 20 15 14 17 14 17 -1 0 -10 8 -17 19 -17 35 0
36 22 3 51 -40 36 -40 53 -3 69 21 8 27 17 24 31 -3 10 -12 19 -20 19 -8 0
-13 8 -11 18 3 14 -9 19 -69 27 -207 29 12 29 532 1z m-15561 -44 c-4 -19 -1
-32 10 -41 20 -17 20 -31 1 -31 -9 0 -19 8 -22 18 -4 9 -16 25 -28 34 -20 17
-20 17 0 32 32 24 45 20 39 -12z m86 3 c-7 -8 -11 -34 -8 -60 2 -25 1 -45 -2
-45 -16 0 -30 28 -30 60 0 38 14 60 38 60 12 0 12 -3 2 -15z m105 -32 c-9 -53
-13 -63 -25 -63 -5 0 -9 15 -8 33 1 17 -2 40 -6 50 -7 14 -3 17 18 17 25 0 27
-2 21 -37z m98 14 c-4 -6 -9 -27 -13 -47 -6 -37 -27 -40 -22 -3 1 13 -2 31 -7
42 -13 23 -7 29 24 23 15 -2 22 -9 18 -15z m111 -22 c4 -14 12 -25 19 -25 16
0 40 -38 32 -50 -11 -18 -26 -10 -37 21 -6 19 -15 28 -24 25 -14 -5 -29 28
-19 44 11 17 23 11 29 -15z m144 10 c-2 -5 -7 -10 -13 -10 -35 -1 -45 -37 -18
-67 9 -10 14 -20 11 -23 -10 -11 -36 7 -47 32 -12 26 -6 42 28 71 18 14 44 12
39 -3z m-201 -35 c0 -23 -4 -39 -9 -38 -5 2 -9 7 -9 11 1 4 1 21 1 37 0 17 4
30 9 30 4 0 8 -18 8 -40z m113 24 c0 -8 -4 -12 -10 -9 -5 3 -10 10 -10 16 0 5
5 9 10 9 6 0 10 -7 10 -16z m200 1 c0 -9 -6 -12 -15 -9 -24 10 -17 -13 11 -40
l27 -24 -27 -17 c-26 -17 -28 -17 -44 0 -16 16 -16 17 6 10 16 -5 22 -2 22 10
0 9 -10 25 -22 36 -23 19 -23 19 -4 34 25 19 46 19 46 0z m14410 -15 c0 -5 -7
-10 -16 -10 -8 0 -12 5 -9 10 3 6 10 10 16 10 5 0 9 -4 9 -10z m-166 -23 c0
-9 -1 -33 -2 -52 -1 -20 -7 -35 -14 -35 -9 0 -12 16 -10 56 3 36 8 54 15 51 7
-2 12 -11 11 -20z m-14906 -4 c5 -18 -23 -16 -39 3 -11 14 -10 15 11 12 13 -1
25 -9 28 -15z m579 -9 c7 -18 -11 -39 -25 -30 -12 7 -4 46 9 46 6 0 12 -7 16
-16z m14433 6 c0 -5 -2 -10 -4 -10 -3 0 -8 5 -11 10 -3 6 -1 10 4 10 6 0 11
-4 11 -10z m-14620 -9 c0 -6 -4 -13 -10 -16 -5 -3 -10 1 -10 9 0 9 5 16 10 16
6 0 10 -4 10 -9z m14678 -28 c6 -19 -35 -16 -42 3 -4 11 0 15 16 12 12 -2 23
-9 26 -15z m-343 -29 c14 -9 25 -23 25 -30 0 -17 12 -18 28 -2 9 9 16 7 31 -6
13 -12 21 -14 26 -6 4 7 22 9 49 5 32 -5 45 -3 55 9 8 9 22 16 32 16 17 0 18
-5 13 -42 -11 -88 -12 -88 -49 -88 -28 0 -39 6 -54 30 -18 31 -31 30 -31 -2 0
-15 -8 -18 -44 -18 -25 0 -48 5 -51 10 -4 6 -23 7 -47 4 -35 -6 -43 -4 -59 17
-27 35 -24 74 7 98 32 25 38 26 69 5z m3033 -1 c-10 -2 -26 -2 -35 0 -10 3 -2
5 17 5 19 0 27 -2 18 -5z m-218 -43 c0 -5 -2 -10 -4 -10 -3 0 -8 5 -11 10 -3
6 -1 10 4 10 6 0 11 -4 11 -10z m20 -100 c0 -5 -4 -10 -9 -10 -6 0 -13 5 -16
10 -3 6 1 10 9 10 9 0 16 -4 16 -10z m-2560 -20 c0 -5 -4 -10 -10 -10 -5 0
-10 5 -10 10 0 6 5 10 10 10 6 0 10 -4 10 -10z m-180 -16 c-8 -8 -22 -19 -32
-25 -16 -9 -17 -7 -6 16 6 14 20 25 31 25 16 0 17 -2 7 -16z m185 -34 c3 -5 1
-10 -4 -10 -6 0 -11 5 -11 10 0 6 2 10 4 10 3 0 8 -4 11 -10z m-120 -20 c3 -5
1 -10 -4 -10 -6 0 -11 5 -11 10 0 6 2 10 4 10 3 0 8 -4 11 -10z m191 -27 c19
-20 32 -38 30 -40 -8 -8 -56 29 -56 43 0 8 -4 14 -10 14 -5 0 -10 5 -10 10 0
17 10 11 46 -27z m-316 17 c0 -5 -4 -10 -10 -10 -5 0 -10 5 -10 10 0 6 5 10
10 10 6 0 10 -4 10 -10z m-14728 -27 c33 -15 38 -21 38 -49 0 -44 -18 -53 -22
-12 -2 25 -8 33 -22 33 -14 0 -20 -8 -20 -28 -2 -34 -67 -103 -90 -94 -12 5
-15 19 -12 67 5 77 14 89 80 99 5 0 27 -7 48 -16z m14878 -8 c0 -8 -4 -15 -10
-15 -5 0 -10 7 -10 15 0 8 5 15 10 15 6 0 10 -7 10 -15z m-14560 -53 c13 -11
20 -24 16 -30 -11 -19 -26 -14 -26 9 0 14 -5 19 -17 17 -24 -4 -28 -35 -6 -42
18 -6 45 -51 36 -60 -3 -2 -13 4 -24 15 -23 23 -39 25 -39 4 0 -8 -4 -15 -10
-15 -5 0 -7 22 -3 53 8 70 30 84 73 49z m160 -22 c0 -11 -7 -20 -15 -20 -15 0
-21 21 -8 33 12 13 23 7 23 -13z m-34 -63 c18 -22 18 -33 0 -18 -12 10 -19 8
-36 -9 -23 -23 -40 -17 -62 24 -9 17 -6 23 18 43 l29 23 18 -22 c10 -13 25
-31 33 -41z m5721 57 c-3 -3 -12 -4 -19 -1 -8 3 -5 6 6 6 11 1 17 -2 13 -5z
m-5597 -29 c6 -8 8 -20 4 -26 -5 -9 -10 -8 -19 4 -10 15 -14 15 -31 2 -18 -14
-18 -15 5 -33 18 -15 21 -21 11 -27 -9 -6 -19 -1 -28 13 -8 12 -21 22 -28 22
-22 0 -16 17 14 39 32 24 55 26 72 6z m80 8 c0 -5 -7 -17 -15 -27 -12 -16 -18
-17 -28 -7 -10 10 -8 15 7 27 22 15 36 18 36 7z m5787 1 c-3 -3 -12 -4 -19 -1
-8 3 -5 6 6 6 11 1 17 -2 13 -5z m-6439 -22 c2 -7 -4 -12 -14 -12 -14 0 -15
-3 -6 -12 16 -16 15 -28 -3 -28 -25 0 -36 33 -17 52 19 18 34 18 40 0z m72 -7
c10 -13 10 -19 -5 -35 -22 -24 -35 -26 -35 -5 0 8 5 15 12 15 9 0 9 3 0 12 -7
7 -12 16 -12 20 0 14 27 9 40 -7z m595 -34 c8 -13 -32 -33 -53 -28 -14 4 -13
6 6 12 12 4 22 11 22 16 0 12 17 11 25 0z m14202 -27 c-3 -3 -12 -4 -19 -1 -8
3 -5 6 6 6 11 1 17 -2 13 -5z m72 -16 c11 -3 11 -6 -1 -15 -10 -9 -16 -6 -25
13 -9 20 -9 23 0 16 7 -5 18 -11 26 -14z m89 -13 c-16 -13 -28 -28 -28 -34 0
-5 -7 -17 -16 -25 -12 -12 -18 -13 -28 -4 -10 10 -8 17 10 37 12 13 20 30 17
37 -4 10 5 14 33 14 l39 -1 -27 -24z m-649 -60 c27 -14 32 -19 18 -23 -39 -8
-93 51 -79 88 4 10 9 5 15 -16 6 -21 21 -37 46 -49z m83 -27 c-9 -9 -15 -9
-24 0 -9 9 -7 12 12 12 19 0 21 -3 12 -12z m-14478 -239 c25 -15 36 -28 36
-45 0 -13 5 -24 10 -24 6 0 10 -6 10 -14 0 -24 -41 -86 -56 -86 -8 0 -23 -5
-33 -12 -15 -9 -26 -8 -55 6 -21 10 -40 25 -43 34 -2 9 -10 27 -16 40 -16 33
18 91 63 107 48 17 45 17 84 -6z m287 -49 c20 -11 27 -50 9 -50 -5 0 -10 9
-10 21 0 15 -5 20 -22 17 -29 -4 -35 -28 -9 -35 27 -7 27 -19 1 -26 -11 -3
-20 -12 -20 -21 0 -9 -4 -16 -10 -16 -5 0 -10 22 -10 48 0 66 24 87 71 62z
m229 -66 c-18 -21 -30 -17 -30 11 0 32 34 53 38 24 2 -11 -2 -27 -8 -35z
m-167 -11 c-23 -50 -23 -50 -32 -34 -12 19 10 71 31 71 17 0 17 -2 1 -37z m72
13 c-17 -26 -12 -53 13 -59 10 -3 7 -5 -8 -6 -50 -2 -67 44 -27 72 32 23 40
20 22 -7z m157 -16 c-16 -30 -16 -32 2 -45 20 -15 20 -15 0 -15 -45 0 -59 47
-21 73 33 24 38 20 19 -13z m3918 20 c0 -5 -5 -10 -11 -10 -5 0 -7 5 -4 10 3
6 8 10 11 10 2 0 4 -4 4 -10z m-4036 -9 c4 -5 3 -17 0 -26 -5 -13 -8 -14 -15
-3 -5 7 -9 19 -9 26 0 14 16 16 24 3z m226 0 c0 -5 -7 -14 -15 -21 -8 -7 -15
-22 -15 -34 -1 -20 -1 -20 -11 -2 -8 13 -8 25 0 42 10 23 41 34 41 15z m89
-60 c-16 -36 -28 -38 -60 -12 -19 16 -22 23 -13 37 18 31 34 28 34 -5 0 -17 4
-31 9 -31 17 0 21 16 11 51 l-10 33 21 -21 c20 -19 20 -24 8 -52z m-151 35 c3
-12 -1 -17 -10 -14 -7 3 -15 13 -16 22 -3 12 1 17 10 14 7 -3 15 -13 16 -22z
m259 2 c22 -20 24 -21 42 -4 20 18 58 19 50 1 -2 -5 -10 -8 -18 -7 -18 5 -30
-15 -24 -39 4 -14 11 -18 24 -14 23 8 26 -13 3 -22 -8 -3 -26 4 -40 18 -21 20
-27 21 -34 9 -7 -11 -10 -7 -10 17 0 17 -3 34 -7 36 -13 8 -55 -12 -48 -23 3
-5 3 -15 -1 -22 -5 -8 -10 -6 -14 8 -10 26 -2 44 24 54 29 12 27 12 53 -12z
m169 -19 c-14 -21 -14 -25 -1 -46 19 -28 1 -32 -27 -6 -24 22 -23 33 9 60 31
28 41 23 19 -8z m-546 -5 c0 -8 -4 -14 -10 -14 -5 0 -10 9 -10 21 0 11 5 17
10 14 6 -3 10 -13 10 -21z m650 1 c0 -8 -6 -15 -14 -15 -17 0 -28 14 -19 24
12 12 33 6 33 -9z m-60 -15 c0 -11 -4 -20 -10 -20 -5 0 -10 9 -10 20 0 11 5
20 10 20 6 0 10 -9 10 -20z m88 -28 c5 -17 -48 -36 -62 -22 -7 7 -3 10 12 10
13 0 22 6 22 16 0 17 22 14 28 -4z m13258 -52 c51 -25 73 -56 80 -112 9 -78
-58 -148 -143 -148 -35 0 -50 7 -82 36 -43 39 -66 91 -57 129 9 37 64 94 100
104 47 14 56 13 102 -9z m-11781 -25 c0 -22 -31 -33 -47 -17 -17 17 -1 44 24
40 15 -2 23 -10 23 -23z m13200 -81 c19 -8 21 -25 14 -128 -8 -106 -23 -127
-86 -120 -151 15 -151 15 -165 37 -19 30 -9 204 13 218 14 10 195 4 224 -7z
m1316 -94 c66 0 72 -13 64 -129 -9 -130 -12 -133 -143 -122 -51 4 -98 13 -104
19 -14 14 -11 197 4 225 9 18 17 19 77 13 36 -3 82 -6 102 -6z m-5406 -181
c11 -17 0 -20 -21 -4 -17 13 -17 14 -2 15 9 0 20 -5 23 -11z m2355 -120 c0 -4
-7 -12 -16 -17 -10 -5 -17 -25 -18 -52 -3 -67 -26 -64 -26 4 0 30 -5 58 -10
61 -6 4 -8 10 -6 14 6 10 76 1 76 -10z m-7820 -164 c1075 -80 2585 -193 3355
-250 770 -57 1888 -140 2485 -185 1166 -86 1192 -88 1186 -98 -2 -4 -132 3
-288 14 -155 12 -384 30 -508 39 -219 16 -385 28 -810 60 -113 9 -385 29 -605
45 -220 16 -491 36 -602 45 -112 8 -293 22 -403 30 -110 8 -289 22 -397 30
-109 8 -290 21 -403 30 -113 8 -296 21 -407 30 -112 8 -292 22 -400 30 -109 8
-288 21 -398 29 -110 9 -265 20 -345 26 -80 6 -293 22 -475 35 -181 14 -422
32 -535 40 -113 9 -293 22 -400 30 -178 14 -1003 75 -1680 125 -339 25 -390
30 -390 41 0 4 15 6 33 3 17 -2 912 -70 1987 -149z m8142 109 c-4 -47 6 -74
28 -74 12 0 20 7 21 18 1 9 2 22 4 27 1 6 3 20 3 33 1 13 9 22 18 22 13 0 15
-7 9 -42 -12 -78 -46 -106 -88 -75 -18 12 -22 35 -19 95 1 22 6 32 15 29 6 -2
11 -17 9 -33z m-240 9 c26 -23 23 -59 -6 -78 -51 -34 -103 39 -56 77 27 22 38
23 62 1z m132 -15 c9 -12 16 -29 16 -36 0 -21 -26 -42 -54 -42 -15 0 -30 -8
-37 -21 -17 -32 -26 -10 -21 49 3 43 8 55 26 62 35 14 54 11 70 -12z m298 -15
c10 -9 18 -26 18 -38 0 -27 -34 -60 -51 -50 -7 5 -19 -2 -30 -16 -14 -19 -21
-21 -30 -12 -10 10 -10 18 -1 38 7 14 12 37 12 51 0 16 8 28 23 34 32 13 38
12 59 -7z m798 -20 c3 -3 -3 -9 -13 -14 -11 -7 -17 -22 -17 -44 0 -40 -8 -65
-22 -65 -5 0 -8 22 -7 49 2 27 -3 56 -9 64 -7 7 -9 17 -6 20 6 6 65 -2 74 -10z
m446 -65 c-3 -24 -7 -52 -8 -62 -2 -11 -8 -21 -15 -23 -14 -5 -15 83 -1 110
17 33 30 19 24 -25z m-386 18 c0 -7 -7 -19 -15 -26 -8 -6 -14 -15 -13 -18 2
-18 -3 -32 -12 -32 -15 0 -12 77 3 83 23 10 37 7 37 -7z m95 -2 c10 -10 15
-29 13 -47 -2 -24 -9 -32 -30 -38 -17 -4 -34 -2 -45 6 -16 12 -16 16 -3 41 29
59 38 64 65 38z m115 -9 c16 -19 18 -77 3 -82 -7 -3 -13 9 -15 29 -4 41 -32
46 -36 6 -5 -42 -32 -36 -32 7 0 28 5 38 23 45 32 13 43 12 57 -5z m94 -25
c-5 -23 -3 -30 10 -30 21 0 21 -26 0 -34 -24 -9 -54 -7 -54 4 0 6 7 10 15 10
21 0 19 13 -5 35 -23 21 -11 45 21 45 15 0 17 -5 13 -30z m187 -1 c18 -18 19
-23 6 -37 -8 -9 -12 -23 -10 -29 8 -21 -25 -26 -52 -9 -32 21 -33 59 -3 80 29
21 34 20 59 -5z m89 -8 c0 -5 -7 -14 -15 -21 -8 -7 -15 -21 -15 -31 0 -21 -19
-27 -21 -6 -2 16 1 39 6 55 5 14 45 17 45 3z m724 -17 c20 -19 20 -28 1 -44
-11 -9 -14 -23 -9 -49 l6 -36 -30 35 -30 35 -7 -27 c-11 -43 -29 -34 -21 10 3
20 6 49 6 65 0 24 4 27 34 27 19 0 42 -7 50 -16z m99 -39 c24 -17 15 -70 -15
-86 -43 -23 -80 57 -40 87 22 17 32 17 55 -1z m121 -8 c25 -18 29 -120 5 -125
-10 -2 -19 5 -22 18 -3 12 -13 20 -25 20 -19 0 -52 33 -52 52 0 15 40 48 58
48 10 0 26 -6 36 -13z m244 -46 c4 -27 -14 -27 -29 0 -9 17 -13 19 -20 8 -5
-8 -9 -22 -9 -32 0 -14 5 -17 20 -12 14 5 20 2 20 -9 0 -21 -34 -21 -54 0 -22
22 -20 50 6 74 19 17 24 18 42 6 12 -7 22 -23 24 -35z m-173 4 c0 -40 22 -43
32 -4 14 52 35 50 29 -2 -3 -24 -5 -45 -5 -47 -1 -2 -18 -2 -38 0 -34 3 -38 6
-44 38 -4 19 -5 38 -2 43 10 17 27 0 28 -28z m246 12 c-8 -8 -5 -17 11 -34 18
-19 19 -25 8 -38 -15 -19 -51 -16 -58 4 -3 9 2 11 17 6 17 -5 21 -2 21 14 0
14 -5 19 -15 15 -23 -9 -32 26 -10 42 21 15 43 8 26 -9z m95 8 c4 -8 1 -22 -6
-29 -9 -11 -9 -20 0 -36 14 -26 -1 -49 -17 -28 -13 16 -25 93 -16 101 11 12
33 7 39 -8z m-11519 -217 c-3 -8 -6 -5 -6 6 -1 11 2 17 5 13 3 -3 4 -12 1 -19z
m103 8 c0 -3 -4 -8 -10 -11 -5 -3 -10 -1 -10 4 0 6 5 11 10 11 6 0 10 -2 10
-4z m720 -56 c0 -5 -4 -10 -10 -10 -5 0 -10 5 -10 10 0 6 5 10 10 10 6 0 10
-4 10 -10z m750 -61 c0 -5 -4 -9 -10 -9 -5 0 -10 7 -10 16 0 8 5 12 10 9 6 -3
10 -10 10 -16z m86 -16 c-10 -10 -19 5 -10 18 6 11 8 11 12 0 2 -7 1 -15 -2
-18z m6398 -74 c20 -16 26 -29 26 -60 0 -67 -64 -108 -116 -74 -24 15 -25 20
-18 73 3 31 11 63 16 70 16 19 62 14 92 -9z m-6224 1 c0 -5 -5 -10 -11 -10 -5
0 -7 5 -4 10 3 6 8 10 11 10 2 0 4 -4 4 -10z m6430 -15 c0 -8 -4 -15 -10 -15
-5 0 -10 7 -10 15 0 8 5 15 10 15 6 0 10 -7 10 -15z m56 -67 c-2 -56 -6 -73
-17 -73 -10 0 -14 15 -14 60 -1 70 3 85 20 85 9 0 12 -19 11 -72z m-125 21
c12 -16 16 -35 12 -55 -4 -26 -11 -33 -34 -38 -34 -7 -69 11 -69 35 0 9 7 19
15 23 9 3 12 12 8 22 -4 11 1 22 12 31 24 17 34 13 56 -18z m367 -31 c-3 -62
-3 -63 25 -66 37 -4 36 -32 -1 -32 -53 0 -63 17 -55 93 4 48 10 67 20 67 11 0
13 -14 11 -62z m122 47 c0 -8 -7 -15 -15 -15 -8 0 -15 7 -15 15 0 8 7 15 15
15 8 0 15 -7 15 -15z m258 -16 c-2 -6 -8 -10 -13 -10 -5 0 -11 4 -13 10 -2 6
4 11 13 11 9 0 15 -5 13 -11z m-682 -30 c-3 -17 -6 -40 -6 -50 0 -11 -4 -19
-10 -19 -5 0 -10 23 -10 50 0 39 3 50 16 50 13 0 15 -7 10 -31z m116 4 c4 -36
26 -41 38 -9 5 14 16 26 25 26 8 0 15 -2 15 -5 0 -10 -62 -121 -76 -134 -20
-22 -28 -6 -15 28 10 24 10 34 -3 59 -20 38 -20 62 -2 62 8 0 16 -12 18 -27z
m408 -5 c16 -10 24 -10 40 0 30 18 60 -16 60 -69 0 -33 -3 -40 -17 -37 -13 2
-18 13 -18 38 0 45 -31 55 -40 13 -11 -48 -15 -54 -26 -47 -6 3 -9 18 -6 33 3
15 2 33 -3 40 -13 23 -38 4 -42 -30 -2 -18 -9 -34 -16 -37 -11 -3 -13 5 -8 34
3 22 5 44 6 51 0 6 10 14 23 16 12 2 23 5 25 6 1 0 11 -5 22 -11z m230 -3 c11
-13 11 -20 0 -40 -11 -21 -11 -29 0 -50 7 -14 10 -28 6 -32 -13 -14 -41 14
-42 43 -1 16 -5 37 -9 47 -7 17 9 47 25 47 4 0 13 -7 20 -15z m-339 -7 c-1 -5
-1 -24 -1 -43 0 -24 -5 -35 -15 -35 -11 0 -15 12 -15 46 0 36 3 45 16 42 8 -2
15 -6 15 -10z m261 -54 c-6 -61 -22 -65 -22 -5 0 38 4 51 13 48 7 -2 11 -18 9
-43z m-11154 -737 c28 -26 28 -54 1 -83 -21 -22 -21 -25 -5 -58 18 -39 20 -56
6 -56 -12 0 -26 16 -51 58 -23 39 -43 37 -47 -4 -4 -30 -19 -47 -35 -37 -11 7
1 183 13 198 14 17 93 5 118 -18z m135 -49 c28 -14 46 -38 47 -59 0 -18 -28
-29 -78 -29 -48 0 -35 -25 13 -26 46 0 57 -20 19 -34 -34 -13 -58 -6 -84 27
-40 51 -12 115 58 132 2 1 13 -4 25 -11z m883 -11 c13 -13 -7 -37 -31 -37 -24
0 -25 -2 -25 -64 0 -78 -6 -96 -32 -96 -18 0 -19 5 -12 85 6 82 6 85 -14 85
-24 0 -36 15 -27 31 7 11 130 8 141 -4z m-685 -18 c30 -30 10 -48 -26 -25 -25
17 -28 17 -46 0 -39 -35 -1 -93 42 -66 14 9 25 10 32 3 17 -17 -1 -40 -38 -47
-31 -6 -41 -2 -66 22 -26 25 -30 34 -25 64 10 65 83 93 127 49z m444 1 c3 -11
11 -20 16 -20 15 0 10 -27 -6 -34 -20 -7 -20 -64 0 -86 14 -15 14 -19 1 -29
-12 -11 -20 -8 -42 14 -21 21 -25 32 -20 56 3 17 1 39 -4 50 -8 14 -6 25 6 44
20 30 40 32 49 5z m-281 -11 c15 -12 26 -30 26 -45 0 -25 -6 -27 -74 -28 -51
-1 -43 -26 8 -26 33 0 46 -4 46 -14 0 -34 -72 -35 -105 -1 -32 31 -32 74 0
109 29 31 63 33 99 5z m175 -16 c23 -28 14 -126 -11 -131 -14 -3 -17 6 -20 55
-3 50 -6 58 -23 58 -17 0 -20 -8 -23 -47 -3 -47 -22 -75 -43 -63 -8 5 -9 28
-4 74 4 36 8 68 10 71 2 3 24 5 51 4 35 0 51 -6 63 -21z m431 -24 c0 -6 -11
-20 -24 -30 -18 -14 -26 -31 -28 -62 -2 -30 -8 -43 -20 -45 -15 -3 -18 4 -18
41 0 24 3 59 6 76 6 28 10 31 45 31 22 0 39 -5 39 -11z m124 -12 c20 -20 23
-31 19 -73 -3 -27 -6 -53 -7 -58 -1 -4 -22 -10 -46 -11 -51 -4 -80 14 -80 51
0 17 9 25 42 36 55 19 66 44 14 34 -29 -6 -36 -4 -36 9 0 15 30 33 58 34 7 1
23 -10 36 -22z m160 -3 c36 -14 41 -149 6 -149 -11 0 -15 13 -15 52 0 95 -47
96 -59 2 -6 -40 -10 -50 -24 -47 -14 3 -16 13 -13 68 2 36 5 68 8 73 5 8 75
10 97 1z m696 -14 c0 -13 -7 -20 -20 -20 -13 0 -20 7 -20 20 0 13 7 20 20 20
13 0 20 -7 20 -20z m-539 0 c20 -11 27 -40 9 -40 -6 0 -19 5 -30 12 -37 23
-35 -4 3 -35 43 -37 46 -50 15 -71 -30 -21 -61 -20 -82 3 -19 21 -12 51 7 32
12 -12 47 -15 47 -3 0 4 -14 16 -30 27 -66 44 -10 113 61 75z m447 -20 c27
-36 27 -36 2 -43 -15 -4 -20 -14 -20 -41 0 -23 5 -39 15 -42 22 -9 18 -34 -4
-34 -32 0 -54 29 -48 66 3 20 0 40 -10 54 -14 20 -13 23 8 46 28 30 31 30 57
-6z m-288 -2 c17 -18 20 -31 16 -58 -3 -19 -6 -44 -6 -56 0 -18 -6 -21 -47
-22 -92 -2 -116 59 -35 88 24 9 43 21 43 26 0 14 -33 17 -41 4 -5 -7 -16 -10
-25 -6 -17 6 -17 8 0 26 24 27 69 25 95 -2z m153 1 c22 -12 37 -28 37 -41 0
-12 -38 -10 -45 2 -21 34 -72 -11 -59 -52 5 -18 11 -20 51 -14 39 5 44 4 41
-12 -5 -27 -53 -45 -80 -31 -54 27 -71 76 -42 117 26 37 63 49 97 31z m220
-87 c-6 -71 -14 -89 -33 -77 -9 5 -11 27 -7 70 5 71 12 86 32 79 11 -5 13 -20
8 -72z m162 42 c35 -37 32 -76 -6 -108 -38 -33 -73 -33 -104 -1 -50 49 -15
135 55 135 21 0 39 -9 55 -26z m175 -11 c20 -25 15 -122 -6 -130 -23 -8 -28 3
-25 57 1 39 -2 52 -14 56 -23 9 -33 -5 -39 -55 -5 -49 -20 -71 -37 -54 -7 7
-8 35 -4 81 l7 70 51 -3 c36 -2 56 -8 67 -22z"/>
<path d="M1714 11246 c-7 -30 1 -46 26 -46 21 0 33 25 25 51 -9 28 -43 24 -51
-5z"/>
<path d="M1830 11245 c0 -10 7 -15 18 -13 21 4 19 22 -2 26 -10 2 -16 -3 -16
-13z"/>
<path d="M1410 10790 c0 -22 3 -40 8 -41 4 -1 23 -3 42 -4 57 -5 92 44 54 76
-13 10 -19 10 -36 0 -15 -9 -23 -10 -31 -2 -23 23 -37 11 -37 -29z"/>
<path d="M5054 10653 c-7 -26 5 -58 22 -58 5 0 10 19 12 43 2 32 0 42 -12 42
-9 0 -19 -12 -22 -27z"/>
<path d="M5117 10483 c-13 -12 -8 -93 6 -93 21 0 37 22 37 50 0 35 -26 61 -43
43z"/>
<path d="M5440 10654 c-23 -7 -42 -42 -35 -65 16 -50 100 -56 125 -9 26 48
-27 91 -90 74z"/>
<path d="M5402 10474 c-32 -22 -30 -76 3 -98 36 -24 82 -20 110 9 31 30 31 45
0 79 -28 30 -78 35 -113 10z"/>
<path d="M7306 10485 c-35 -32 -46 -65 -46 -135 0 -53 3 -62 35 -96 31 -33 39
-36 72 -31 108 17 143 207 51 271 -34 24 -81 20 -112 -9z"/>
<path d="M7732 10459 c-45 -30 -69 -112 -52 -175 35 -122 166 -121 200 1 16
56 5 128 -23 161 -31 35 -83 41 -125 13z"/>
<path d="M2017 10244 c-3 -4 -2 -15 4 -26 8 -15 7 -24 -6 -38 -15 -16 -15 -18
0 -24 30 -11 33 -7 33 44 0 47 -12 63 -31 44z"/>
<path d="M1335 9783 c-4 -10 -8 -31 -11 -47 -2 -15 -6 -35 -8 -45 -13 -42 76
-77 108 -42 27 30 19 67 -23 111 -43 44 -55 49 -66 23z m63 -75 c17 -17 15
-25 -10 -31 -24 -7 -39 8 -31 30 6 16 25 17 41 1z"/>
<path d="M13962 9763 c-17 -3 -21 -9 -17 -22 3 -10 -1 -24 -10 -31 -18 -15
-20 -41 -3 -58 13 -13 75 -16 102 -6 18 7 22 49 5 60 -6 3 -8 15 -6 26 4 14
-1 22 -19 29 -14 5 -26 8 -27 8 -1 -1 -12 -4 -25 -6z m41 -40 c-7 -2 -19 -2
-25 0 -7 3 -2 5 12 5 14 0 19 -2 13 -5z"/>
<path d="M14924 9652 c-9 -14 -8 -22 2 -37 13 -17 16 -18 30 -3 10 10 14 23 9
37 -8 26 -26 27 -41 3z"/>
<path d="M15610 9560 c0 -5 5 -10 10 -10 6 0 10 5 10 10 0 6 -4 10 -10 10 -5
0 -10 -4 -10 -10z"/>
<path d="M16077 9573 c-14 -17 -14 -20 3 -43 l18 -24 13 27 c10 23 10 30 -2
43 -14 13 -17 13 -32 -3z"/>
<path d="M6535 9430 c-4 -7 -3 -16 3 -22 14 -14 45 -2 40 15 -6 16 -34 21 -43
7z"/>
<path d="M6533 9354 c-10 -26 14 -41 35 -21 15 16 15 19 2 27 -21 14 -30 12
-37 -6z"/>
<path d="M18194 9427 c3 -12 1 -27 -5 -33 -6 -7 -9 -23 -7 -36 2 -19 12 -24
53 -31 59 -10 81 7 64 50 -5 14 -7 34 -4 44 7 20 8 20 -68 24 -34 2 -38 0 -33
-18z m66 -17 c0 -5 -7 -10 -15 -10 -8 0 -15 5 -15 10 0 6 7 10 15 10 8 0 15
-4 15 -10z"/>
<path d="M6075 9410 c-3 -6 -3 -19 0 -31 10 -29 39 -20 43 14 3 21 -1 27 -17
27 -11 0 -23 -5 -26 -10z"/>
<path d="M5367 9303 c-4 -3 -7 -28 -7 -53 l0 -47 61 -7 c34 -4 63 -5 66 -3 2
3 6 27 9 55 l5 49 -47 7 c-59 8 -79 8 -87 -1z"/>
<path d="M6685 9370 c-3 -5 1 -10 9 -10 9 0 16 5 16 10 0 6 -4 10 -9 10 -6 0
-13 -4 -16 -10z"/>
<path d="M6680 9330 c-12 -8 -12 -10 3 -16 21 -8 35 2 21 16 -5 5 -15 6 -24 0z"/>
<path d="M18504 9376 c-7 -29 1 -46 21 -46 19 0 34 28 28 51 -8 28 -41 24 -49
-5z"/>
<path d="M6885 9350 c3 -5 10 -10 16 -10 5 0 9 5 9 10 0 6 -7 10 -16 10 -8 0
-12 -4 -9 -10z"/>
<path d="M6872 9308 c5 -15 28 -18 29 -3 0 6 -7 12 -17 13 -10 3 -15 -1 -12
-10z"/>
<path d="M7315 9320 c-3 -5 1 -10 9 -10 9 0 16 5 16 10 0 6 -4 10 -9 10 -6 0
-13 -4 -16 -10z"/>
<path d="M7305 9280 c-8 -13 20 -24 36 -15 8 6 7 10 -2 16 -18 11 -26 11 -34
-1z"/>
<path d="M1269 9194 c-6 -7 -9 -25 -7 -41 3 -25 7 -28 45 -31 38 -3 43 -1 49
22 3 14 4 32 1 40 -7 18 -75 26 -88 10z"/>
<path d="M10547 9186 c-176 -63 -261 -240 -197 -408 65 -169 272 -248 429
-162 176 95 226 286 118 443 -40 58 -58 74 -131 111 -67 34 -151 40 -219 16z
m160 -127 c67 -25 115 -96 115 -170 0 -92 -70 -168 -163 -177 -64 -6 -111 12
-153 58 -72 80 -68 172 9 247 24 23 54 43 67 46 44 8 97 7 125 -4z"/>
<path d="M10552 8978 c-16 -16 -15 -23 4 -42 19 -20 29 -20 48 0 12 12 13 20
6 35 -12 21 -40 25 -58 7z"/>
<path d="M10626 8902 c-83 -70 -100 -92 -71 -92 23 0 187 138 180 151 -12 18
-31 8 -109 -59z"/>
<path d="M10676 8844 c-20 -20 -20 -27 2 -47 16 -15 20 -15 40 -1 12 8 22 19
22 24 0 11 -29 40 -40 40 -5 0 -16 -7 -24 -16z"/>
<path d="M2033 9109 c-14 -14 -5 -49 12 -49 7 0 15 9 18 20 6 24 -15 44 -30
29z"/>
<path d="M11777 8994 c-11 -11 3 -24 24 -24 12 0 19 5 17 13 -5 14 -31 21 -41
11z"/>
<path d="M11766 8901 c-8 -12 21 -34 34 -26 17 11 11 35 -9 35 -11 0 -22 -4
-25 -9z"/>
<path d="M6436 8963 c-7 -17 11 -35 29 -30 6 2 11 13 13 25 3 16 -2 22 -16 22
-11 0 -23 -8 -26 -17z"/>
<path d="M6726 8944 c-8 -21 1 -34 24 -34 10 0 21 4 24 9 10 16 -5 41 -24 41
-10 0 -21 -7 -24 -16z"/>
<path d="M7126 8914 c-4 -10 -2 -22 3 -27 14 -14 43 0 39 20 -4 24 -34 28 -42
7z"/>
<path d="M7760 8858 c0 -7 4 -19 9 -27 11 -17 23 1 15 23 -7 19 -24 21 -24 4z"/>
<path d="M8261 8831 c-15 -27 9 -46 34 -27 16 12 17 16 6 30 -18 21 -28 20
-40 -3z"/>
<path d="M15750 8801 c-124 -38 -216 -148 -227 -271 -12 -131 60 -246 194
-312 57 -28 69 -30 130 -25 88 6 156 38 214 98 147 153 102 391 -93 488 -51
26 -73 31 -127 30 -36 0 -77 -4 -91 -8z m145 -167 c137 -9 135 -8 132 -103 -4
-101 -14 -114 -81 -106 -28 3 -86 7 -129 9 -106 6 -110 10 -101 110 7 87 21
111 59 102 12 -3 66 -8 120 -12z m-216 -130 c-2 -46 -1 -85 2 -88 3 -3 62 -10
132 -15 130 -10 152 -15 141 -33 -4 -7 -44 -8 -118 -3 -210 14 -201 8 -193
127 6 92 12 112 29 102 5 -4 8 -41 7 -90z"/>
<path d="M15745 8600 c-3 -5 3 -10 15 -10 12 0 18 5 15 10 -3 6 -10 10 -15 10
-5 0 -12 -4 -15 -10z"/>
<path d="M15970 8586 c0 -9 7 -16 16 -16 17 0 14 22 -4 28 -7 2 -12 -3 -12
-12z"/>
<path d="M15835 8556 c-33 -49 30 -90 70 -46 17 18 17 21 1 45 -21 32 -51 32
-71 1z"/>
<path d="M15740 8486 c0 -9 7 -16 16 -16 17 0 14 22 -4 28 -7 2 -12 -3 -12
-12z"/>
<path d="M15962 8469 c2 -6 8 -10 13 -10 5 0 11 4 13 10 2 6 -4 11 -13 11 -9
0 -15 -5 -13 -11z"/>
<path d="M16631 8626 c-17 -20 -4 -56 18 -56 28 0 47 28 34 48 -14 23 -37 26
-52 8z"/>
<path d="M16792 8613 c2 -10 10 -18 18 -18 22 0 18 29 -3 33 -14 3 -18 -1 -15
-15z"/>
<path d="M16783 8568 c2 -7 12 -13 22 -13 10 0 20 6 23 13 2 7 -6 12 -23 12
-17 0 -25 -5 -22 -12z"/>
<path d="M5085 8250 c-7 -12 2 -30 16 -30 5 0 9 9 9 20 0 21 -15 27 -25 10z"/>
<path d="M5147 8134 c-11 -11 -8 -54 3 -54 6 0 13 6 16 14 7 17 -9 50 -19 40z"/>
<path d="M5424 8226 c-12 -30 4 -47 38 -44 28 2 33 7 33 28 0 21 -5 26 -33 28
-22 2 -34 -2 -38 -12z"/>
<path d="M5412 8118 c-35 -35 14 -82 63 -60 44 20 26 72 -25 72 -14 0 -31 -5
-38 -12z"/>
<path d="M6075 8167 c-19 -30 -29 -80 -21 -112 8 -33 49 -59 81 -51 48 12 73
115 39 164 -21 31 -78 31 -99 -1z"/>
<path d="M1180 7995 c0 -8 5 -15 10 -15 6 0 10 7 10 15 0 8 -4 15 -10 15 -5 0
-10 -7 -10 -15z"/>
<path d="M1217 7955 c-14 -19 -15 -25 -4 -25 14 0 47 31 47 43 0 16 -26 4 -43
-18z"/>
<path d="M1265 7920 c-4 -6 -3 -16 3 -22 6 -6 12 -6 17 2 4 6 3 16 -3 22 -6 6
-12 6 -17 -2z"/>
<path d="M1530 7916 c0 -39 18 -48 41 -20 15 18 2 47 -25 52 -12 3 -16 -4 -16
-32z"/>
<path d="M1950 7870 c0 -15 5 -20 18 -18 9 2 17 10 17 18 0 8 -8 16 -17 18
-13 2 -18 -3 -18 -18z"/>
<path d="M1710 7876 c0 -2 7 -6 15 -10 8 -3 15 -1 15 4 0 6 -7 10 -15 10 -8 0
-15 -2 -15 -4z"/>
<path d="M2060 7861 c0 -12 6 -21 16 -21 9 0 14 7 12 17 -5 25 -28 28 -28 4z"/>
<path d="M10304 7865 c-4 -8 -3 -23 0 -32 6 -15 8 -15 16 -3 13 20 12 50 0 50
-6 0 -13 -7 -16 -15z"/>
<path d="M10350 7720 c0 -32 23 -42 34 -15 8 21 -3 45 -20 45 -9 0 -14 -11
-14 -30z"/>
<path d="M2337 7853 c-14 -13 -6 -33 13 -33 13 0 20 7 20 20 0 19 -20 27 -33
13z"/>
<path d="M10840 7815 c-19 -20 -24 -37 -24 -77 0 -43 4 -54 28 -74 35 -31 51
-30 87 5 24 25 29 38 29 78 0 86 -68 124 -120 68z"/>
<path d="M11340 7768 c-30 -49 -26 -103 9 -139 16 -16 37 -29 46 -29 9 0 30
13 46 29 23 23 29 38 29 71 0 42 -14 79 -34 92 -6 4 -26 8 -44 8 -26 0 -36 -6
-52 -32z"/>
<path d="M11703 7700 c-43 -51 -42 -62 5 -58 36 3 37 4 42 51 7 58 -4 60 -47
7z"/>
<path d="M11942 7681 c-23 -26 -38 -51 -35 -55 4 -3 23 -6 44 -6 37 0 37 0 41
48 3 26 2 50 -2 55 -4 4 -25 -15 -48 -42z"/>
<path d="M15500 7465 c0 -16 6 -25 15 -25 9 0 15 9 15 25 0 16 -6 25 -15 25
-9 0 -15 -9 -15 -25z"/>
<path d="M15556 7355 c-11 -28 -7 -55 8 -55 22 0 31 40 13 57 -12 13 -15 13
-21 -2z"/>
<path d="M16239 7424 c-28 -34 41 -73 77 -43 18 15 18 24 -2 43 -20 21 -58 20
-75 0z"/>
<path d="M16227 7312 c-22 -24 -21 -35 2 -56 25 -23 70 -17 88 11 13 19 12 24
-6 42 -26 26 -63 27 -84 3z"/>
<path d="M16716 7381 c-23 -26 -32 -93 -16 -130 15 -37 59 -57 89 -42 50 27
67 118 30 165 -25 32 -77 36 -103 7z"/>
<path d="M1156 7402 c-8 -14 21 -35 39 -28 16 6 21 26 6 26 -5 0 -16 3 -24 6
-8 3 -18 1 -21 -4z"/>
<path d="M4967 6942 c-10 -10 -17 -28 -17 -40 0 -25 33 -62 55 -62 23 0 55 37
55 64 0 50 -60 75 -93 38z"/>
<path d="M5307 6903 c-14 -13 -6 -33 13 -33 13 0 20 7 20 20 0 19 -20 27 -33
13z"/>
<path d="M5297 6844 c-11 -12 3 -24 28 -24 32 0 40 16 12 24 -28 7 -32 7 -40
0z"/>
<path d="M5757 6855 c-4 -8 -2 -17 3 -20 13 -8 40 6 40 21 0 19 -36 18 -43 -1z"/>
<path d="M5750 6801 c0 -13 27 -21 45 -15 25 10 17 24 -15 24 -16 0 -30 -4
-30 -9z"/>
<path d="M2174 6766 c-9 -22 4 -36 32 -36 21 0 25 4 22 23 -4 26 -45 37 -54
13z"/>
<path d="M13397 6439 l-34 -34 -7 -132 c-5 -91 -4 -138 3 -152 27 -49 36 -51
523 -87 602 -45 555 -44 588 -7 25 28 29 41 36 140 11 164 10 174 -23 203 -28
25 -40 27 -189 38 -168 13 -629 47 -776 58 l-87 7 -34 -34z m235 -161 c-7 -7
-12 -8 -12 -2 0 14 12 26 19 19 2 -3 -1 -11 -7 -17z m671 -69 c17 -19 20 -20
36 -5 29 27 47 19 21 -9 -13 -14 -29 -25 -37 -25 -15 0 -53 35 -53 50 0 16 14
12 33 -11z"/>
<path d="M16063 6324 c-7 -3 -13 -16 -13 -29 0 -44 50 -60 74 -22 20 32 -22
67 -61 51z"/>
<path d="M15798 6293 c-21 -5 -24 -19 -5 -26 15 -5 47 10 47 23 0 10 -12 11
-42 3z"/>
<path d="M1676 6264 c-20 -19 -20 -28 -1 -44 19 -16 35 -4 35 25 0 31 -14 39
-34 19z"/>
<path d="M1927 6283 c-27 -49 -4 -104 33 -80 28 17 33 36 15 63 -15 23 -40 32
-48 17z"/>
<path d="M2297 6214 c-11 -11 -8 -54 3 -54 6 0 13 6 16 14 7 17 -9 50 -19 40z"/>
<path d="M18602 6138 c-13 -13 -4 -38 14 -38 15 0 19 35 6 44 -5 3 -14 0 -20
-6z"/>
<path d="M18723 6124 c-8 -21 13 -42 28 -27 13 13 5 43 -11 43 -6 0 -13 -7
-17 -16z"/>
<path d="M4885 5870 c-4 -6 -3 -16 3 -22 6 -6 12 -6 17 2 4 6 3 16 -3 22 -6 6
-12 6 -17 -2z"/>
<path d="M4920 5755 c0 -14 5 -25 10 -25 6 0 10 11 10 25 0 14 -4 25 -10 25
-5 0 -10 -11 -10 -25z"/>
<path d="M5251 5794 c-26 -33 -27 -54 -1 -54 21 0 40 27 40 59 0 28 -14 26
-39 -5z"/>
<path d="M5422 5748 c-17 -17 -15 -32 7 -52 16 -14 23 -15 41 -6 31 17 24 64
-10 68 -14 2 -31 -3 -38 -10z"/>
<path d="M1011 5811 c-11 -9 -21 -33 -24 -53 -5 -30 -2 -40 13 -48 21 -11 60
-13 84 -4 24 9 32 71 12 93 -24 26 -63 32 -85 12z m54 -32 c7 -10 -21 -38 -37
-39 -12 0 -9 25 4 38 15 15 25 15 33 1z"/>
<path d="M6030 5793 c-43 -17 -55 -98 -20 -133 25 -25 41 -25 68 0 31 29 31
103 0 124 -24 17 -25 17 -48 9z"/>
<path d="M6265 5755 c-51 -50 -15 -149 47 -130 11 4 26 22 34 40 18 45 9 90
-22 104 -33 14 -31 15 -59 -14z"/>
<path d="M6477 5742 c-25 -27 -23 -108 2 -122 47 -24 91 7 91 65 0 62 -57 97
-93 57z"/>
<path d="M8862 5564 c4 -21 22 -23 26 -1 2 10 -3 17 -13 17 -10 0 -15 -6 -13
-16z"/>
<path d="M8898 5468 c-10 -25 2 -39 23 -27 16 8 18 13 8 25 -14 17 -25 18 -31
2z"/>
<path d="M9046 5475 c-30 -31 16 -76 54 -53 22 14 26 38 8 56 -16 16 -44 15
-62 -3z"/>
<path d="M9510 5533 c-26 -10 -39 -36 -40 -75 0 -40 27 -78 55 -78 52 0 78
113 33 144 -24 17 -25 17 -48 9z"/>
<path d="M11434 5325 c-10 -8 -14 -15 -8 -15 5 0 19 7 30 15 10 8 14 15 8 15
-5 0 -19 -7 -30 -15z"/>
<path d="M9714 5512 c-39 -26 -41 -109 -2 -136 27 -19 62 -3 78 35 26 62 -28
134 -76 101z"/>
<path d="M9912 5483 c-23 -43 -23 -79 -2 -106 27 -34 53 -34 79 -1 26 33 27
85 3 107 -24 22 -69 22 -80 0z"/>
<path d="M10176 5469 c-47 -37 -25 -139 29 -139 30 0 55 38 55 84 0 63 -41 89
-84 55z"/>
<path d="M10393 5462 c-6 -4 -17 -20 -23 -36 -23 -61 19 -128 64 -104 31 17
45 39 46 74 0 51 -50 89 -87 66z"/>
<path d="M953 5257 c-3 -5 2 -16 11 -23 16 -11 16 -13 -5 -19 -22 -7 -22 -8
-3 -22 13 -11 15 -17 7 -20 -29 -10 -12 -31 28 -35 42 -4 66 15 40 32 -9 5 -8
9 4 14 11 4 15 12 11 23 -4 9 -1 20 6 24 10 7 10 11 1 20 -16 16 -91 20 -100
6z"/>
<path d="M884 4686 c-15 -60 27 -97 92 -81 30 8 39 16 46 40 12 45 -13 65 -78
65 -48 0 -54 -2 -60 -24z m86 -16 c11 -20 6 -40 -8 -40 -4 0 -16 7 -26 15 -16
12 -17 17 -6 30 17 20 27 19 40 -5z"/>
<path d="M15883 4463 c-28 -39 -29 -53 -3 -53 24 0 33 17 28 57 l-3 28 -22
-32z"/>
<path d="M16542 4460 c-31 -29 -31 -112 -1 -133 42 -30 89 9 89 73 -1 64 -49
96 -88 60z"/>
<path d="M16762 4358 c-28 -28 1 -64 44 -54 20 5 25 12 22 34 -2 20 -9 28 -28
30 -14 2 -31 -3 -38 -10z"/>
<path d="M17360 4363 c0 -20 3 -33 6 -30 11 10 13 67 3 67 -5 0 -9 -16 -9 -37z"/>
<path d="M17500 4385 c-10 -12 -11 -21 -3 -33 14 -23 34 -26 58 -8 16 12 18
18 9 33 -15 24 -47 28 -64 8z"/>
<path d="M17304 4356 c-3 -9 -9 -14 -13 -12 -3 2 -11 -7 -18 -20 -14 -29 4
-46 22 -21 7 10 17 17 24 17 14 0 15 36 1 45 -6 3 -13 -1 -16 -9z"/>
<path d="M18036 4296 c-28 -37 -24 -49 12 -39 17 4 22 13 22 39 0 19 -2 34 -4
34 -2 0 -15 -15 -30 -34z"/>
<path d="M18392 4328 c-9 -9 -8 -16 5 -30 20 -22 36 -23 53 -3 25 30 -29 62
-58 33z"/>
<path d="M18380 4224 c-11 -13 -10 -18 7 -36 23 -22 57 -18 67 9 14 36 -48 60
-74 27z"/>
<path d="M18600 4315 c-10 -12 -10 -18 0 -30 16 -19 44 -19 59 -1 10 11 7 17
-11 30 -28 20 -32 20 -48 1z"/>
<path d="M18593 4223 c-17 -6 -16 -38 1 -53 21 -17 60 -8 64 14 6 31 -32 53
-65 39z"/>
<path d="M16058 3953 c7 -3 16 -2 19 1 4 3 -2 6 -13 5 -11 0 -14 -3 -6 -6z"/>
<path d="M16060 3901 c0 -5 5 -13 10 -16 6 -3 10 -2 10 4 0 5 -4 13 -10 16 -5
3 -10 2 -10 -4z"/>
<path d="M15960 3862 c0 -10 33 -42 43 -42 15 0 6 30 -12 40 -24 12 -31 13
-31 2z"/>
<path d="M16050 3810 c0 -5 7 -10 15 -10 8 0 15 5 15 10 0 6 -7 10 -15 10 -8
0 -15 -4 -15 -10z"/>
<path d="M15993 3771 c-32 -27 -29 -37 12 -37 22 0 35 5 35 13 0 7 -5 13 -11
13 -6 0 -9 7 -5 15 7 20 -4 18 -31 -4z"/>
<path d="M15900 3750 c0 -24 15 -27 24 -4 9 22 8 24 -9 24 -8 0 -15 -9 -15
-20z"/>
<path d="M16090 3734 c0 -11 5 -14 16 -10 9 3 20 6 25 6 5 0 9 5 9 10 0 6 -11
10 -25 10 -16 0 -25 -6 -25 -16z"/>
<path d="M16190 3726 c0 -9 7 -12 20 -9 31 8 34 23 6 23 -16 0 -26 -6 -26 -14z"/>
<path d="M16270 3730 c-24 -8 -23 -8 8 -9 20 -1 31 3 27 9 -3 6 -7 10 -8 9 -1
-1 -13 -5 -27 -9z"/>
<path d="M16370 3720 c0 -5 9 -10 21 -10 11 0 17 5 14 10 -3 6 -13 10 -21 10
-8 0 -14 -4 -14 -10z"/>
<path d="M16326 3688 c-20 -28 -21 -68 -2 -68 7 0 16 12 18 28 3 15 9 35 13
45 10 25 -11 21 -29 -5z"/>
<path d="M16528 3703 c6 -2 18 -2 25 0 6 3 1 5 -13 5 -14 0 -19 -2 -12 -5z"/>
<path d="M15990 3685 c0 -8 5 -15 10 -15 6 0 10 7 10 15 0 8 -4 15 -10 15 -5
0 -10 -7 -10 -15z"/>
<path d="M16402 3640 c0 -14 2 -19 5 -12 2 6 2 18 0 25 -3 6 -5 1 -5 -13z"/>
<path d="M15938 3643 c-10 -2 -18 -11 -18 -19 0 -12 13 -14 62 -12 36 2 63 8
65 15 3 8 -6 10 -30 6 -20 -3 -37 -1 -41 6 -7 11 -10 12 -38 4z"/>
<path d="M16771 3634 c0 -11 3 -14 6 -6 3 7 2 16 -1 19 -3 4 -6 -2 -5 -13z"/>
<path d="M16080 3622 c0 -19 5 -22 44 -22 26 0 46 5 49 13 4 8 8 9 14 1 11
-16 103 -28 103 -15 0 6 -17 11 -38 11 -21 0 -47 7 -59 15 -14 10 -24 12 -28
5 -9 -14 -58 -13 -73 2 -9 9 -12 7 -12 -10z"/>
<path d="M15994 3582 c-6 -4 -14 -17 -18 -29 -6 -19 -4 -23 13 -23 24 0 27 10
9 28 -9 9 -8 12 4 12 9 0 20 5 23 10 7 12 -15 13 -31 2z"/>
<path d="M16075 3560 c-3 -5 -1 -10 4 -10 6 0 11 5 11 10 0 6 -2 10 -4 10 -3
0 -8 -4 -11 -10z"/>
<path d="M16050 3525 c0 -8 2 -15 4 -15 2 0 6 7 10 15 3 8 1 15 -4 15 -6 0
-10 -7 -10 -15z"/>
<path d="M16078 3503 c-45 -25 -65 -49 -53 -62 3 -3 10 1 14 8 5 7 21 14 35
14 19 0 26 4 22 14 -4 8 4 17 18 23 27 10 44 30 24 29 -7 0 -34 -12 -60 -26z"/>
<path d="M18047 3511 c-3 -12 -1 -21 3 -21 14 0 19 15 11 29 -6 9 -10 7 -14
-8z"/>
<path d="M16206 3513 c-12 -13 7 -23 44 -23 31 0 43 -6 63 -31 20 -25 28 -29
42 -21 17 9 16 11 -6 22 -13 7 -33 20 -44 30 -20 17 -88 33 -99 23z"/>
<path d="M15510 3490 c0 -5 5 -10 11 -10 5 0 7 5 4 10 -3 6 -8 10 -11 10 -2 0
-4 -4 -4 -10z"/>
<path d="M16146 3453 c-10 -65 -7 -100 10 -107 28 -11 34 3 34 75 0 61 -2 69
-19 69 -14 0 -20 -10 -25 -37z"/>
<path d="M16565 3480 c-3 -5 1 -10 10 -10 9 0 13 5 10 10 -3 6 -8 10 -10 10
-2 0 -7 -4 -10 -10z"/>
<path d="M15614 3446 c-9 -23 7 -38 26 -26 13 8 13 11 -2 26 -16 17 -18 17
-24 0z"/>
<path d="M16506 3445 c-3 -9 0 -15 9 -15 8 0 15 7 15 15 0 8 -4 15 -9 15 -5 0
-11 -7 -15 -15z"/>
<path d="M16590 3429 c0 -18 2 -19 15 -9 8 7 15 16 15 21 0 5 -7 9 -15 9 -9 0
-15 -9 -15 -21z"/>
<path d="M16249 3438 c-10 -50 -8 -69 9 -66 20 4 24 59 5 66 -7 2 -13 2 -14 0z"/>
<path d="M18038 3433 c7 -3 16 -2 19 1 4 3 -2 6 -13 5 -11 0 -14 -3 -6 -6z"/>
<path d="M15997 3424 c-26 -26 18 -112 60 -116 47 -4 73 3 73 18 0 13 -7 15
-38 9 -44 -7 -70 14 -81 65 -3 18 -9 28 -14 24z"/>
<path d="M16475 3417 c-4 -10 -5 -21 -1 -24 10 -10 18 4 13 24 -4 17 -4 17
-12 0z"/>
<path d="M16658 3423 c7 -3 16 -2 19 1 4 3 -2 6 -13 5 -11 0 -14 -3 -6 -6z"/>
<path d="M16060 3399 c0 -24 23 -21 28 4 2 10 -3 17 -12 17 -10 0 -16 -9 -16
-21z"/>
<path d="M16685 3390 c-3 -5 -1 -10 4 -10 6 0 11 5 11 10 0 6 -2 10 -4 10 -3
0 -8 -4 -11 -10z"/>
<path d="M16430 3357 c0 -28 29 -77 45 -77 22 0 18 18 -5 25 -11 3 -20 14 -20
23 0 9 -5 24 -10 32 -8 13 -10 12 -10 -3z"/>
<path d="M16517 3363 c-11 -10 -8 -53 3 -53 6 0 10 14 10 30 0 31 -2 35 -13
23z"/>
<path d="M16294 3339 c-15 -17 -27 -20 -61 -16 -32 3 -43 1 -43 -9 0 -8 10
-14 23 -14 12 0 32 -3 45 -6 16 -5 22 -2 22 10 0 14 17 21 41 18 4 -1 5 8 2
18 -7 25 -6 25 -29 -1z"/>
<path d="M16340 3301 c0 -10 40 -19 58 -13 25 8 11 22 -23 22 -19 0 -35 -4
-35 -9z"/>
<path d="M16548 3283 c7 -3 16 -2 19 1 4 3 -2 6 -13 5 -11 0 -14 -3 -6 -6z"/>
<path d="M16600 3280 c0 -5 11 -10 25 -10 14 0 25 5 25 10 0 6 -11 10 -25 10
-14 0 -25 -4 -25 -10z"/>
<path d="M16075 3260 c-3 -5 -1 -10 4 -10 6 0 11 5 11 10 0 6 -2 10 -4 10 -3
0 -8 -4 -11 -10z"/>
<path d="M16007 3254 c-8 -8 1 -24 14 -24 5 0 9 7 9 15 0 15 -12 20 -23 9z"/>
<path d="M16140 3230 c0 -5 5 -10 10 -10 6 0 10 5 10 10 0 6 -4 10 -10 10 -5
0 -10 -4 -10 -10z"/>
<path d="M17598 3083 c7 -3 16 -2 19 1 4 3 -2 6 -13 5 -11 0 -14 -3 -6 -6z"/>
<path d="M15521 3757 c-15 -19 -2 -61 14 -47 7 6 20 8 29 4 26 -10 19 21 -8
39 -19 13 -26 14 -35 4z"/>
<path d="M770 3464 c0 -28 3 -35 18 -32 11 2 18 14 20 36 3 27 0 32 -17 32
-17 0 -21 -6 -21 -36z"/>
<path d="M1247 3414 c-9 -10 -9 -52 1 -58 4 -2 16 2 27 10 19 14 19 14 -1 34
-11 11 -23 17 -27 14z"/>
<path d="M761 2924 c-30 -25 -41 -54 -21 -54 6 0 10 -7 10 -15 0 -8 13 -21 28
-29 27 -14 31 -13 65 15 21 17 37 35 37 40 0 16 -56 69 -73 69 -8 0 -29 -12
-46 -26z m73 -26 c8 -13 6 -22 -9 -38 l-18 -20 -24 22 c-22 20 -22 23 -6 40
19 22 41 20 57 -4z"/>
<path d="M15190 2682 c-82 -41 -81 -145 2 -188 39 -20 84 -12 120 23 23 22 28
35 28 73 0 51 -21 80 -73 99 -36 14 -36 14 -77 -7z m63 -62 c3 -11 12 -20 21
-20 22 0 20 -9 -10 -36 -27 -26 -44 -31 -44 -13 0 6 -10 19 -22 29 l-23 18 28
11 c15 6 27 15 27 21 0 18 18 11 23 -10z"/>
<path d="M16518 2574 c-5 -4 -8 -44 -8 -89 l0 -82 38 -7 c20 -3 60 -6 88 -6
l52 0 7 86 c4 47 5 88 2 90 -8 9 -172 16 -179 8z m117 -61 c16 -24 16 -27 1
-38 -9 -7 -16 -17 -16 -24 0 -6 -9 -11 -20 -11 -13 0 -20 7 -20 20 0 11 -7 20
-15 20 -22 0 -18 19 8 41 30 25 42 24 62 -8z"/>
<path d="M17877 2466 c-4 -10 -7 -51 -7 -91 0 -72 1 -74 28 -79 43 -9 141 -10
149 -2 14 13 19 157 7 167 -6 5 -47 12 -91 16 -70 5 -81 4 -86 -11z m109 -51
c3 -14 12 -25 20 -25 20 0 17 -10 -8 -37 -27 -29 -39 -29 -67 1 -23 25 -21 46
3 46 8 0 16 9 19 20 7 28 25 25 33 -5z"/>
<path d="M15017 2143 c-4 -3 -7 -15 -7 -25 0 -21 36 -25 43 -5 9 27 -17 50
-36 30z"/>
<path d="M15135 2136 c-16 -12 -17 -16 -6 -30 7 -9 19 -16 26 -16 19 0 28 32
12 47 -11 11 -16 11 -32 -1z"/>
<path d="M15442 2113 c-13 -23 3 -54 23 -47 19 8 19 38 1 53 -12 10 -17 9 -24
-6z"/>
<path d="M16410 2020 c0 -16 5 -30 10 -30 6 0 10 14 10 30 0 17 -4 30 -10 30
-5 0 -10 -13 -10 -30z"/>
<path d="M16800 1995 c0 -25 14 -34 24 -16 8 12 -3 41 -15 41 -5 0 -9 -11 -9
-25z"/>
<path d="M17592 1983 c5 -26 38 -29 38 -4 0 15 -6 21 -21 21 -14 0 -19 -5 -17
-17z"/>
<path d="M17717 1943 c-16 -15 -6 -43 14 -43 15 0 19 4 15 16 -3 9 -6 20 -6
25 0 11 -14 12 -23 2z"/>
<path d="M17824 1935 c-18 -13 -18 -15 -2 -31 19 -19 38 -11 38 16 0 26 -14
32 -36 15z"/>
<path d="M14757 1503 c-10 -10 -8 -91 2 -97 5 -4 21 -2 35 4 47 18 29 100 -22
100 -5 0 -12 -3 -15 -7z"/>
<path d="M14917 1453 c-11 -10 -8 -73 3 -73 6 0 10 18 10 40 0 41 -2 45 -13
33z"/>
<path d="M4462 583 c4 -33 37 -43 57 -19 20 24 6 46 -29 46 -28 0 -31 -3 -28
-27z"/>
<path d="M4630 540 c0 -5 4 -10 9 -10 5 0 16 -3 25 -6 11 -4 16 -1 16 10 0 10
-9 16 -25 16 -14 0 -25 -4 -25 -10z"/>
<path d="M4975 520 c-8 -13 20 -24 41 -16 20 8 9 26 -16 26 -10 0 -22 -5 -25
-10z"/>
<path d="M5707 403 c-14 -13 -6 -24 15 -21 27 4 36 28 11 28 -11 0 -23 -3 -26
-7z"/>
<path d="M6187 372 c-10 -2 -16 -9 -14 -15 5 -15 19 -18 37 -7 19 12 2 28 -23
22z"/>
<path d="M6705 380 c-25 -28 -13 -70 20 -70 37 0 55 42 30 70 -22 25 -27 25
-50 0z"/>
<path d="M18595 5493 c22 -2 44 -8 50 -12 5 -5 31 -12 58 -15 26 -4 47 -11 47
-17 0 -5 -4 -9 -10 -9 -5 0 -10 -7 -10 -15 0 -15 10 -18 83 -30 21 -3 45 -9
53 -12 11 -4 14 6 14 45 l0 50 -52 6 c-29 3 -102 7 -163 9 -60 3 -92 2 -70 0z
m225 -53 c0 -12 -17 -12 -45 0 -17 7 -15 9 13 9 17 1 32 -3 32 -9z m37 -6 c-3
-3 -12 -4 -19 -1 -8 3 -5 6 6 6 11 1 17 -2 13 -5z"/>
<path d="M18580 5461 c0 -10 24 -21 48 -21 11 0 6 6 -12 15 -33 18 -36 18 -36
6z"/>
<path d="M18645 5429 c-4 -5 -3 -9 2 -10 4 0 20 -3 36 -5 18 -3 27 0 27 9 0
16 -56 21 -65 6z"/>
<path d="M18446 3542 c-3 -5 1 -12 9 -16 19 -7 19 -26 0 -26 -8 0 -15 -4 -15
-10 0 -16 40 -11 47 6 7 18 -31 62 -41 46z"/>
<path d="M18551 3494 c0 -11 3 -14 6 -6 3 7 2 16 -1 19 -3 4 -6 -2 -5 -13z"/>
<path d="M18595 3501 c-3 -5 -1 -12 5 -16 5 -3 10 1 10 9 0 18 -6 21 -15 7z"/>
<path d="M18433 3274 c-17 -17 -17 -49 0 -62 29 -25 59 35 30 60 -15 14 -20
14 -30 2z"/>
<path d="M18520 3242 c0 -21 56 -57 65 -42 3 6 -1 13 -9 16 -9 3 -16 15 -16
25 0 12 -7 19 -20 19 -13 0 -20 -7 -20 -18z"/>
<path d="M14770 978 c-13 -7 -35 -29 -48 -48 -19 -28 -23 -43 -18 -78 8 -58
30 -88 79 -106 29 -10 245 -29 677 -61 349 -25 718 -52 820 -60 372 -29 406
-30 435 -11 33 22 65 74 65 106 0 14 -9 43 -19 65 -26 59 -63 71 -261 84 -91
7 -253 18 -360 26 -107 8 -319 24 -470 35 -151 11 -358 27 -460 35 -324 25
-412 28 -440 13z"/>
</g>
</svg>
